<svg xmlns="http://www.w3.org/2000/svg" xmlns:xlink="http://www.w3.org/1999/xlink" width="500" zoomAndPan="magnify" viewBox="0 0 375 374.999991" height="500" preserveAspectRatio="xMidYMid meet" version="1.0"><defs><clipPath id="4ff3d14f12"><path d="M 188 54.066406 L 249 54.066406 L 249 132 L 188 132 Z M 188 54.066406 " clip-rule="nonzero"/></clipPath></defs><path fill="#fecc27" d="M 274.234375 270.527344 C 279.457031 274.410156 281.054688 277.933594 285.007812 283.109375 L 297.390625 299.160156 C 298.054688 299.960938 298.613281 300.832031 299.070312 301.765625 C 300.277344 304.484375 299.453125 307.839844 297.6875 310.378906 C 296.027344 312.703125 294.011719 314.65625 291.636719 316.242188 C 289.914062 317.652344 288.046875 318.835938 286.035156 319.789062 C 283.136719 321.132812 282.121094 320.78125 279.042969 318.730469 C 273.523438 315.046875 263.574219 302.328125 262.527344 301.023438 C 259.292969 297.003906 256.457031 294.007812 253.699219 288.769531 C 253.101562 287.855469 252.925781 286.863281 253.167969 285.796875 C 253.398438 285.25 253.71875 284.761719 254.132812 284.335938 C 259.28125 278.3125 262.6875 274.460938 269.570312 270.484375 " fill-opacity="1" fill-rule="nonzero"/><path fill="#e2b127" d="M 286.042969 319.777344 C 283.136719 321.121094 282.121094 320.835938 279.035156 318.71875 C 273.535156 315.035156 263.574219 302.316406 262.527344 301.023438 C 259.292969 296.992188 256.457031 293.996094 253.710938 288.757812 C 253.109375 287.84375 252.929688 286.851562 253.167969 285.785156 C 253.402344 285.238281 253.726562 284.75 254.144531 284.324219 L 254.585938 283.808594 C 254.476562 284.757812 254.679688 285.632812 255.191406 286.441406 C 257.949219 291.734375 260.78125 294.6875 264.027344 298.71875 C 265.085938 300.019531 275.015625 312.738281 280.535156 316.410156 C 283.613281 318.476562 284.617188 318.8125 287.523438 317.46875 C 289.535156 316.511719 291.402344 315.332031 293.128906 313.925781 C 295.183594 312.53125 296.988281 310.867188 298.542969 308.929688 C 298.289062 309.429688 298.003906 309.910156 297.6875 310.367188 C 296.023438 312.6875 294.007812 314.644531 291.636719 316.230469 C 289.917969 317.644531 288.054688 318.824219 286.042969 319.777344 Z M 286.042969 319.777344 " fill-opacity="1" fill-rule="nonzero"/><path fill="#d1a024" d="M 262.65625 291.214844 C 268.269531 289.53125 273.664062 284.960938 275.480469 282.050781 C 276.664062 280.15625 277.667969 278.726562 277.59375 275.847656 C 277.53125 272.492188 273.988281 269.617188 270.871094 269.222656 C 267.75 268.832031 265.054688 270.28125 262.75 271.964844 C 259.488281 274.378906 256.765625 277.296875 254.578125 280.714844 C 253.464844 282.460938 252.460938 284.652344 253.253906 286.992188 C 253.46875 287.539062 253.75 288.050781 254.09375 288.527344 C 254.4375 289.003906 254.835938 289.429688 255.289062 289.804688 C 255.738281 290.179688 256.230469 290.496094 256.761719 290.746094 C 257.292969 290.996094 257.847656 291.175781 258.425781 291.289062 C 260.535156 291.714844 262.566406 291.464844 264.515625 290.546875 C 266.261719 289.660156 267.75 289.265625 269.464844 287.5 " fill-opacity="1" fill-rule="nonzero"/><path fill="#2a4887" d="M 72.132812 161.523438 C 88.132812 187.609375 89.675781 187.707031 107.300781 209.050781 C 108.304688 210.277344 117.390625 221.15625 121.863281 218.140625 C 128.585938 213.613281 117.378906 202.921875 113.105469 196.679688 C 99.359375 176.574219 95.777344 173.1875 84.875 157.9375 C 83.332031 155.820312 77.144531 146.433594 72.039062 142.707031 C 70.21875 141.375 66.347656 140.972656 64.359375 143.703125 C 61.675781 147.332031 69.648438 157.460938 72.132812 161.566406 " fill-opacity="1" fill-rule="nonzero"/><path fill="#013251" d="M 121.863281 218.140625 C 117.390625 221.15625 108.304688 210.277344 107.300781 209.0625 C 89.675781 187.707031 88.132812 187.621094 72.132812 161.523438 C 69.679688 157.460938 61.695312 147.289062 64.351562 143.703125 C 64.972656 142.878906 65.777344 142.308594 66.761719 142 C 66.699219 142.0625 66.65625 142.125 66.601562 142.191406 C 63.90625 145.820312 71.910156 155.957031 74.386719 160.023438 C 90.40625 186.109375 91.9375 186.203125 109.566406 207.546875 C 110.507812 208.667969 118.351562 218.128906 123.066406 217.074219 C 122.722656 217.492188 122.320312 217.847656 121.863281 218.140625 Z M 121.863281 218.140625 " fill-opacity="1" fill-rule="nonzero"/><path fill="#2a4887" d="M 77.019531 158.253906 C 93.039062 184.339844 94.558594 184.4375 112.199219 205.78125 C 113.253906 207.007812 122.273438 217.875 126.757812 214.859375 C 133.484375 210.34375 122.273438 199.652344 118.003906 193.410156 C 104.257812 173.300781 100.660156 169.90625 89.769531 154.667969 C 88.214844 152.550781 82.03125 143.152344 76.921875 139.425781 C 75.105469 138.105469 71.246094 137.703125 69.246094 140.390625 C 66.5625 144.019531 74.535156 154.148438 77.019531 158.253906 " fill-opacity="1" fill-rule="nonzero"/><path fill="#013251" d="M 126.757812 214.871094 C 122.285156 217.875 113.203125 207.007812 112.1875 205.78125 C 94.570312 184.4375 93.039062 184.339844 77.019531 158.253906 C 74.574219 154.191406 66.5625 144.019531 69.246094 140.390625 C 69.863281 139.558594 70.667969 138.992188 71.65625 138.6875 C 71.59375 138.746094 71.539062 138.808594 71.488281 138.878906 C 68.800781 142.519531 76.773438 152.636719 79.261719 156.75 C 95.28125 182.859375 96.800781 182.933594 114.441406 204.277344 C 115.371094 205.398438 123.226562 214.859375 127.941406 213.800781 C 127.597656 214.214844 127.203125 214.570312 126.757812 214.871094 Z M 126.757812 214.871094 " fill-opacity="1" fill-rule="nonzero"/><path fill="#2a4887" d="M 81.902344 154.972656 C 97.921875 181.050781 99.445312 181.15625 117.082031 202.5 C 118.085938 203.71875 127.160156 214.597656 131.644531 211.582031 C 138.359375 207.050781 127.160156 196.363281 122.886719 190.117188 C 109.140625 170.011719 105.546875 166.625 94.65625 151.386719 C 93.101562 149.214844 86.914062 139.871094 81.789062 136.148438 C 79.96875 134.8125 76.109375 134.421875 74.109375 137.109375 C 71.425781 140.738281 79.398438 150.867188 81.882812 154.972656 " fill-opacity="1" fill-rule="nonzero"/><path fill="#013251" d="M 131.644531 211.582031 C 127.171875 214.597656 118.085938 203.71875 117.074219 202.5 C 99.457031 181.15625 97.921875 181.058594 81.902344 154.972656 C 79.449219 150.910156 71.445312 140.738281 74.132812 137.109375 C 74.734375 136.28125 75.527344 135.710938 76.5 135.394531 L 76.339844 135.597656 C 73.65625 139.226562 81.628906 149.355469 84.113281 153.460938 C 100.164062 179.558594 101.6875 179.683594 119.324219 200.988281 C 120.253906 202.121094 128.101562 211.570312 132.828125 210.511719 C 132.488281 210.929688 132.09375 211.285156 131.644531 211.582031 Z M 131.644531 211.582031 " fill-opacity="1" fill-rule="nonzero"/><path fill="#2a4887" d="M 86.789062 151.683594 C 102.808594 177.769531 104.332031 177.863281 121.96875 199.210938 C 123.027344 200.4375 132.054688 211.304688 136.539062 208.289062 C 143.253906 203.769531 132.054688 193.082031 127.785156 186.839844 C 114.039062 166.730469 110.441406 163.332031 99.550781 148.09375 C 97.996094 145.925781 91.8125 136.589844 86.703125 132.855469 C 84.886719 131.53125 81.015625 131.132812 79.027344 133.820312 C 76.339844 137.449219 84.3125 147.578125 86.800781 151.683594 " fill-opacity="1" fill-rule="nonzero"/><path fill="#013251" d="M 136.527344 208.257812 C 132.046875 211.304688 123.027344 200.4375 121.96875 199.210938 C 104.339844 177.863281 102.820312 177.769531 86.800781 151.683594 C 84.347656 147.617188 76.339844 137.449219 79.027344 133.820312 C 79.640625 132.988281 80.441406 132.421875 81.425781 132.113281 C 81.425781 132.179688 81.320312 132.230469 81.269531 132.304688 C 78.582031 135.945312 86.554688 146.0625 89.039062 150.179688 C 105.050781 176.265625 106.574219 176.359375 124.199219 197.675781 C 125.140625 198.796875 132.984375 208.257812 137.703125 207.199219 C 137.363281 207.609375 136.972656 207.964844 136.527344 208.257812 Z M 136.527344 208.257812 " fill-opacity="1" fill-rule="nonzero"/><path fill="#2a4887" d="M 91.472656 148.527344 C 107.480469 174.605469 109.003906 174.710938 126.640625 196.054688 C 127.644531 197.273438 136.71875 208.152344 141.203125 205.136719 C 147.925781 200.605469 136.71875 189.917969 132.445312 183.671875 C 118.699219 163.566406 115.117188 160.179688 104.214844 144.929688 C 102.671875 142.8125 96.484375 133.425781 91.378906 129.703125 C 89.558594 128.367188 85.6875 127.964844 83.699219 130.65625 C 81.015625 134.285156 88.988281 144.414062 91.472656 148.527344 " fill-opacity="1" fill-rule="nonzero"/><path fill="#013251" d="M 141.203125 205.136719 C 136.730469 208.152344 127.644531 197.273438 126.640625 196.054688 C 109.015625 174.710938 107.480469 174.613281 91.472656 148.527344 C 89.019531 144.464844 81.015625 134.296875 83.691406 130.664062 C 84.308594 129.835938 85.113281 129.261719 86.101562 128.949219 C 86.042969 129.011719 85.988281 129.082031 85.941406 129.152344 C 83.246094 132.78125 91.230469 142.910156 93.703125 147.015625 C 109.722656 173.101562 111.246094 173.195312 128.882812 194.5 C 129.824219 195.632812 137.671875 205.082031 142.386719 204.023438 C 142.050781 204.457031 141.65625 204.828125 141.203125 205.136719 Z M 141.203125 205.136719 " fill-opacity="1" fill-rule="nonzero"/><path fill="#2a4887" d="M 96.359375 145.25 C 112.378906 171.335938 113.898438 171.429688 131.539062 192.773438 C 132.59375 194.003906 141.613281 204.882812 146.097656 201.867188 C 152.8125 197.335938 141.613281 186.648438 137.34375 180.402344 C 123.597656 160.296875 120 156.910156 109.109375 141.660156 C 107.554688 139.542969 101.371094 130.15625 96.261719 126.433594 C 94.445312 125.097656 90.585938 124.695312 88.585938 127.382812 C 85.902344 131.015625 93.875 141.140625 96.359375 145.25 " fill-opacity="1" fill-rule="nonzero"/><path fill="#013251" d="M 146.097656 201.90625 C 141.625 204.882812 132.542969 194.003906 131.484375 192.785156 C 113.910156 171.429688 112.378906 171.34375 96.359375 145.25 C 93.90625 141.183594 85.898438 131.003906 88.585938 127.382812 C 89.210938 126.566406 90.011719 126.007812 90.996094 125.710938 C 90.933594 125.769531 90.878906 125.835938 90.828125 125.902344 C 88.140625 129.542969 96.113281 139.660156 98.601562 143.777344 C 114.621094 169.832031 116.140625 169.925781 133.777344 191.324219 C 134.710938 192.445312 142.566406 201.90625 147.28125 200.847656 C 146.9375 201.257812 146.542969 201.613281 146.097656 201.90625 Z M 146.097656 201.90625 " fill-opacity="1" fill-rule="nonzero"/><path fill="#2a4887" d="M 101.242188 141.96875 C 117.261719 168.042969 118.796875 168.148438 136.414062 189.496094 C 137.46875 190.710938 146.5 201.589844 150.984375 198.574219 C 157.699219 194.054688 146.5 183.367188 142.226562 177.113281 C 128.480469 157.003906 124.886719 153.617188 113.996094 138.378906 C 112.441406 136.261719 106.253906 126.867188 101.148438 123.140625 C 99.328125 121.816406 95.46875 121.417969 93.472656 124.105469 C 90.785156 127.734375 98.757812 137.863281 101.242188 141.96875 " fill-opacity="1" fill-rule="nonzero"/><path fill="#013251" d="M 150.984375 198.574219 C 146.5 201.589844 137.425781 190.710938 136.414062 189.496094 C 118.796875 168.148438 117.261719 168.042969 101.242188 141.96875 C 98.789062 137.902344 90.785156 127.734375 93.472656 124.105469 C 94.085938 123.269531 94.882812 122.699219 95.871094 122.390625 L 95.714844 122.589844 C 93.027344 126.230469 101 136.347656 103.484375 140.464844 C 119.503906 166.550781 121.027344 166.644531 138.652344 187.980469 C 139.59375 189.113281 147.441406 198.5625 152.167969 197.503906 C 151.828125 197.921875 151.433594 198.277344 150.984375 198.574219 Z M 150.984375 198.574219 " fill-opacity="1" fill-rule="nonzero"/><path fill="#2a4887" d="M 106.105469 138.675781 C 122.148438 164.761719 123.671875 164.867188 141.296875 186.203125 C 142.355469 187.429688 151.386719 198.308594 155.867188 195.292969 C 162.582031 190.765625 151.386719 180.074219 147.113281 173.832031 C 133.367188 153.726562 129.773438 150.339844 118.878906 135.089844 C 117.328125 132.972656 111.140625 123.585938 106.035156 119.859375 C 104.214844 118.527344 100.34375 118.125 98.355469 120.8125 C 95.671875 124.441406 103.644531 134.570312 106.128906 138.675781 " fill-opacity="1" fill-rule="nonzero"/><path fill="#013251" d="M 155.859375 195.292969 C 151.386719 198.308594 142.3125 187.429688 141.296875 186.214844 C 123.671875 164.867188 122.148438 164.773438 106.105469 138.675781 C 103.652344 134.613281 95.648438 124.441406 98.335938 120.8125 C 98.953125 119.984375 99.75 119.417969 100.734375 119.109375 L 100.578125 119.300781 C 97.890625 122.941406 105.863281 133.058594 108.347656 137.171875 C 124.359375 163.261719 125.890625 163.355469 143.519531 184.699219 C 144.457031 185.820312 152.304688 195.28125 157.019531 194.226562 C 156.691406 194.644531 156.304688 195 155.859375 195.292969 Z M 155.859375 195.292969 " fill-opacity="1" fill-rule="nonzero"/><path fill="#2a4887" d="M 170.449219 82.375 L 138.886719 95.902344 C 137.179688 96.53125 135.609375 97.40625 134.179688 98.535156 C 133.292969 99.398438 132.507812 100.34375 131.824219 101.371094 C 126.273438 108.992188 121.050781 116.847656 116.152344 124.941406 C 114.578125 127.53125 112.980469 130.230469 112.851562 133.3125 C 112.664062 136.960938 114.578125 140.371094 116.480469 143.492188 C 123.855469 155.585938 132.089844 167.0625 141.191406 177.917969 C 142.15625 179.304688 143.417969 180.320312 144.976562 180.964844 C 146.289062 181.257812 147.597656 181.238281 148.898438 180.902344 C 174.351562 176.265625 198.3125 161.769531 212.34375 140.019531 C 213.144531 138.96875 213.625 137.785156 213.792969 136.476562 C 213.773438 135.535156 213.578125 134.632812 213.210938 133.765625 C 207.925781 119.289062 196.917969 107.742188 186.214844 96.640625 L 171.117188 80.949219 " fill-opacity="1" fill-rule="nonzero"/><path fill="#013251" d="M 149.3125 180.625 C 148.011719 180.96875 146.703125 180.988281 145.390625 180.6875 C 143.832031 180.042969 142.570312 179.027344 141.605469 177.640625 C 132.503906 166.785156 124.261719 155.308594 116.882812 143.214844 C 114.988281 140.042969 113.066406 136.6875 113.265625 133.035156 C 113.402344 130.007812 114.988281 127.257812 116.554688 124.664062 C 116.839844 124.1875 117.113281 123.734375 117.410156 123.269531 C 116.863281 124.535156 116.539062 125.859375 116.449219 127.238281 C 116.269531 130.886719 118.171875 134.285156 120.085938 137.417969 C 127.464844 149.511719 135.699219 160.984375 144.796875 171.84375 C 145.757812 173.234375 147.019531 174.246094 148.582031 174.878906 C 149.890625 175.203125 151.199219 175.203125 152.503906 174.878906 C 176.910156 170.433594 199.949219 156.890625 214.171875 136.625 C 213.9375 137.789062 213.46875 138.847656 212.757812 139.796875 C 198.722656 161.492188 174.765625 175.992188 149.3125 180.625 Z M 149.3125 180.625 " fill-opacity="1" fill-rule="nonzero"/><path fill="#2a4887" d="M 163.003906 97.511719 C 179.066406 123.597656 180.546875 123.691406 198.183594 145.035156 C 199.242188 146.265625 208.261719 157.144531 212.746094 154.128906 C 219.460938 149.597656 208.261719 138.910156 203.992188 132.664062 C 190.246094 112.558594 186.648438 109.171875 175.757812 93.921875 C 174.203125 91.804688 168.019531 82.417969 162.910156 78.695312 C 161.09375 77.359375 157.230469 76.957031 155.234375 79.644531 C 152.546875 83.277344 160.519531 93.402344 163.003906 97.511719 " fill-opacity="1" fill-rule="nonzero"/><path fill="#013251" d="M 212.746094 154.128906 C 208.273438 157.144531 199.191406 146.265625 198.175781 145.046875 C 180.558594 123.691406 179.066406 123.597656 163.003906 97.511719 C 160.550781 93.445312 152.546875 83.277344 155.234375 79.644531 C 155.851562 78.820312 156.652344 78.25 157.632812 77.941406 L 157.476562 78.144531 C 154.789062 81.773438 162.761719 91.902344 165.246094 96.007812 C 181.265625 122.09375 182.789062 122.1875 200.425781 143.535156 C 201.359375 144.667969 209.203125 154.117188 213.929688 153.058594 C 213.589844 153.476562 213.195312 153.832031 212.746094 154.128906 Z M 212.746094 154.128906 " fill-opacity="1" fill-rule="nonzero"/><path fill="#2a4887" d="M 167.902344 94.238281 C 183.921875 120.324219 185.410156 120.421875 203.070312 141.765625 C 204.128906 142.992188 213.15625 153.863281 217.640625 150.847656 C 224.355469 146.328125 213.15625 135.640625 208.875 129.394531 C 195.128906 109.289062 191.542969 105.890625 180.644531 90.652344 C 179.097656 88.535156 172.914062 79.148438 167.804688 75.414062 C 165.988281 74.089844 162.117188 73.6875 160.128906 76.375 C 157.445312 80.007812 165.417969 90.132812 167.902344 94.238281 " fill-opacity="1" fill-rule="nonzero"/><path fill="#013251" d="M 217.628906 150.855469 C 213.15625 153.863281 204.074219 142.992188 203.070312 141.765625 C 185.410156 120.421875 183.921875 120.324219 167.902344 94.238281 C 165.449219 90.175781 157.445312 80.007812 160.128906 76.375 C 160.742188 75.546875 161.542969 74.976562 162.53125 74.671875 L 162.371094 74.863281 C 159.675781 78.503906 167.660156 88.671875 170.132812 92.738281 C 186.152344 118.824219 187.683594 118.917969 205.3125 140.265625 C 206.253906 141.386719 214.097656 150.847656 218.816406 149.789062 C 218.476562 150.207031 218.082031 150.5625 217.628906 150.855469 Z M 217.628906 150.855469 " fill-opacity="1" fill-rule="nonzero"/><path fill="#2a4887" d="M 172.785156 90.960938 C 188.796875 117.046875 190.328125 117.140625 207.957031 138.484375 C 209.011719 139.703125 218.042969 150.582031 222.515625 147.566406 C 229.242188 143.035156 218.03125 132.359375 213.761719 126.105469 C 200.015625 105.996094 196.429688 102.609375 185.527344 87.371094 C 183.984375 85.203125 177.796875 75.859375 172.691406 72.132812 C 170.871094 70.808594 167.003906 70.40625 165.015625 73.097656 C 162.328125 76.726562 170.300781 86.851562 172.785156 90.960938 " fill-opacity="1" fill-rule="nonzero"/><path fill="#013251" d="M 222.515625 147.566406 C 218.042969 150.582031 208.960938 139.703125 207.957031 138.484375 C 190.328125 117.140625 188.804688 117.046875 172.785156 90.960938 C 170.332031 86.894531 162.328125 76.726562 165.003906 73.097656 C 165.628906 72.261719 166.441406 71.6875 167.4375 71.382812 L 167.277344 71.582031 C 164.582031 75.210938 172.566406 85.339844 175.039062 89.445312 C 191.058594 115.542969 192.589844 115.628906 210.21875 136.972656 C 211.160156 138.105469 219.003906 147.554688 223.722656 146.496094 C 223.378906 146.917969 222.976562 147.273438 222.515625 147.566406 Z M 222.515625 147.566406 " fill-opacity="1" fill-rule="nonzero"/><path fill="#2a4887" d="M 177.671875 87.667969 C 193.679688 113.753906 195.214844 113.847656 212.839844 135.238281 C 213.84375 136.464844 222.929688 147.332031 227.402344 144.316406 C 234.125 139.796875 222.917969 129.109375 218.644531 122.867188 C 204.898438 102.757812 201.316406 99.363281 190.414062 84.121094 C 188.871094 81.953125 182.683594 72.621094 177.578125 68.882812 C 175.757812 67.5625 171.886719 67.160156 169.898438 69.847656 C 167.214844 73.476562 175.1875 83.605469 177.671875 87.710938 " fill-opacity="1" fill-rule="nonzero"/><path fill="#013251" d="M 227.402344 144.285156 C 222.929688 147.289062 213.84375 136.421875 212.839844 135.207031 C 195.214844 113.847656 193.679688 113.753906 177.671875 87.667969 C 175.21875 83.605469 167.214844 73.433594 169.890625 69.804688 C 170.511719 68.980469 171.316406 68.410156 172.300781 68.101562 C 172.242188 68.160156 172.1875 68.222656 172.140625 68.292969 C 169.445312 71.929688 177.429688 82.101562 179.902344 86.164062 C 195.921875 112.25 197.457031 112.347656 215.082031 133.691406 C 216.023438 134.8125 223.871094 144.273438 228.585938 143.214844 C 228.246094 143.632812 227.851562 143.988281 227.402344 144.285156 Z M 227.402344 144.285156 " fill-opacity="1" fill-rule="nonzero"/><path fill="#2a4887" d="M 182.34375 84.515625 C 198.363281 110.589844 199.886719 110.695312 217.515625 132.0625 C 218.570312 133.277344 227.601562 144.15625 232.085938 141.140625 C 238.800781 136.613281 227.601562 125.925781 223.332031 119.679688 C 209.582031 99.574219 205.988281 96.1875 195.097656 80.9375 C 193.542969 78.820312 187.359375 69.433594 182.25 65.710938 C 180.429688 64.375 176.570312 63.972656 174.574219 66.671875 C 171.886719 70.300781 179.859375 80.429688 182.34375 84.535156 " fill-opacity="1" fill-rule="nonzero"/><path fill="#013251" d="M 232.085938 141.121094 C 227.601562 144.136719 218.53125 133.257812 217.515625 132.042969 C 199.886719 110.695312 198.363281 110.601562 182.34375 84.515625 C 179.890625 80.449219 171.886719 70.28125 174.574219 66.652344 C 175.179688 65.820312 175.972656 65.25 176.953125 64.9375 L 176.792969 65.136719 C 174.109375 68.765625 182.082031 78.894531 184.566406 83 C 200.585938 109.085938 202.109375 109.183594 219.734375 130.527344 C 220.675781 131.660156 228.523438 141.109375 233.25 140.050781 C 232.910156 140.464844 232.523438 140.820312 232.085938 141.121094 Z M 232.085938 141.121094 " fill-opacity="1" fill-rule="nonzero"/><path fill="#2a4887" d="M 187.242188 81.265625 C 203.25 107.320312 204.785156 107.414062 222.421875 128.761719 C 223.476562 129.988281 232.507812 140.867188 236.980469 137.851562 C 243.707031 133.320312 232.496094 122.632812 228.226562 116.390625 C 214.480469 96.28125 210.894531 92.894531 199.992188 77.644531 C 198.449219 75.53125 192.265625 66.144531 187.15625 62.417969 C 185.339844 61.085938 181.46875 60.683594 179.480469 63.371094 C 176.792969 67 184.765625 77.128906 187.25 81.234375 " fill-opacity="1" fill-rule="nonzero"/><path fill="#013251" d="M 236.96875 137.851562 C 232.496094 140.867188 223.414062 129.945312 222.421875 128.769531 C 204.785156 107.414062 203.261719 107.332031 187.242188 81.265625 C 184.789062 77.203125 176.785156 67.03125 179.46875 63.402344 C 180.085938 62.574219 180.886719 62.007812 181.871094 61.699219 L 181.710938 61.890625 C 179.015625 65.527344 186.996094 75.699219 189.472656 79.761719 C 205.503906 105.816406 207.023438 105.914062 224.652344 127.257812 C 225.59375 128.378906 233.4375 137.839844 238.15625 136.78125 C 237.816406 137.199219 237.421875 137.558594 236.96875 137.851562 Z M 236.96875 137.851562 " fill-opacity="1" fill-rule="nonzero"/><path fill="#2a4887" d="M 192.125 77.953125 C 208.136719 104.039062 209.667969 104.132812 227.296875 125.480469 C 228.300781 126.695312 237.382812 137.574219 241.855469 134.558594 C 248.582031 130.039062 237.371094 119.351562 233.101562 113.097656 C 219.355469 92.992188 215.769531 89.605469 204.867188 74.367188 C 203.324219 72.195312 197.136719 62.851562 192.03125 59.125 C 190.210938 57.804688 186.34375 57.402344 184.355469 60.089844 C 181.667969 63.71875 189.640625 73.847656 192.125 77.953125 " fill-opacity="1" fill-rule="nonzero"/><path fill="#013251" d="M 241.855469 134.558594 C 237.382812 137.574219 228.300781 126.695312 227.296875 125.480469 C 209.667969 104.132812 208.136719 104.039062 192.125 77.953125 C 189.640625 73.859375 181.667969 63.71875 184.355469 60.101562 C 184.976562 59.273438 185.78125 58.703125 186.765625 58.386719 C 186.707031 58.449219 186.652344 58.515625 186.605469 58.585938 C 183.910156 62.226562 191.894531 72.398438 194.367188 76.460938 C 210.386719 102.546875 211.921875 102.640625 229.546875 123.976562 C 230.488281 125.109375 238.335938 134.558594 243.050781 133.5 C 242.707031 133.917969 242.308594 134.269531 241.855469 134.558594 Z M 241.855469 134.558594 " fill-opacity="1" fill-rule="nonzero"/><g clip-path="url(#4ff3d14f12)"><path fill="#2a4887" d="M 197.042969 74.660156 C 213.050781 100.75 214.574219 100.84375 232.210938 122.1875 C 233.269531 123.417969 242.289062 134.296875 246.773438 131.277344 C 253.496094 126.75 242.289062 116.0625 238.015625 109.816406 C 224.269531 89.710938 220.6875 86.324219 209.785156 71.074219 C 208.242188 68.957031 202.054688 59.570312 196.949219 55.847656 C 195.128906 54.511719 191.257812 54.109375 189.269531 56.796875 C 186.574219 60.429688 194.558594 70.554688 197.042969 74.660156 " fill-opacity="1" fill-rule="nonzero"/></g><path fill="#013251" d="M 246.742188 131.277344 C 242.269531 134.296875 233.183594 123.417969 232.171875 122.199219 C 214.554688 100.84375 213.019531 100.757812 197.042969 74.660156 C 194.589844 70.597656 186.574219 60.429688 189.261719 56.796875 C 189.875 55.980469 190.667969 55.410156 191.640625 55.09375 C 191.582031 55.15625 191.527344 55.222656 191.480469 55.296875 C 188.785156 58.925781 196.769531 69.054688 199.242188 73.160156 C 215.261719 99.257812 216.785156 99.339844 234.421875 120.6875 C 235.363281 121.816406 243.210938 131.269531 247.925781 130.210938 C 247.585938 130.628906 247.191406 130.984375 246.742188 131.277344 Z M 246.742188 131.277344 " fill-opacity="1" fill-rule="nonzero"/><path fill="#fecc27" d="M 163.546875 159.132812 C 162.636719 155.429688 162.488281 154.105469 164.230469 151.726562 C 167.054688 147.871094 170.90625 146.167969 174.804688 148.085938 C 183.679688 152.453125 189.269531 162.167969 195.308594 170 C 219.375 201.175781 243.453125 232.4375 265.445312 265.066406 C 267.511719 267.835938 269.113281 270.851562 270.257812 274.113281 C 271.230469 277.394531 271.199219 277.722656 269.253906 280.535156 C 268.363281 281.816406 264.25 284.769531 262.695312 284.769531 C 261.4375 284.554688 260.21875 284.203125 259.039062 283.710938 C 250.96875 280.386719 248.855469 275.984375 243.007812 269.476562 C 230.484375 255.628906 218.6875 241.183594 207.617188 226.140625 C 204.265625 221.582031 200.976562 216.964844 197.699219 212.382812 L 187.527344 198.046875 C 180.125 187.726562 168.113281 170.953125 163.535156 159.132812 " fill-opacity="1" fill-rule="nonzero"/><path fill="#e2b127" d="M 262.6875 284.84375 C 261.425781 284.628906 260.207031 284.277344 259.027344 283.785156 C 250.96875 280.398438 248.855469 275.984375 243.019531 269.476562 C 230.488281 255.628906 218.6875 241.183594 207.617188 226.140625 C 204.265625 221.582031 200.976562 216.964844 197.699219 212.382812 L 187.527344 198.046875 C 180.1875 187.726562 168.113281 170.953125 163.535156 159.132812 C 162.625 155.429688 162.476562 154.117188 164.210938 151.726562 C 165.386719 150.050781 166.902344 148.789062 168.757812 147.9375 C 168.132812 148.523438 167.570312 149.167969 167.066406 149.863281 C 165.351562 152.199219 165.480469 153.523438 166.378906 157.269531 C 170.96875 169.082031 183.03125 185.84375 190.382812 196.171875 C 193.765625 200.949219 197.160156 205.71875 200.5625 210.480469 C 203.851562 215.09375 207.128906 219.71875 210.492188 224.238281 C 221.546875 239.296875 233.335938 253.761719 245.851562 267.625 C 251.699219 274.09375 253.816406 278.535156 261.863281 281.890625 C 263.042969 282.382812 264.265625 282.738281 265.53125 282.949219 C 266.25 282.867188 266.917969 282.632812 267.527344 282.242188 C 265.933594 283.5 263.734375 284.863281 262.6875 284.84375 Z M 262.6875 284.84375 " fill-opacity="1" fill-rule="nonzero"/><path fill="#ffffff" d="M 126.199219 132.960938 C 128.621094 127.648438 131.585938 122.65625 135.085938 117.980469 C 138.585938 113.304688 142.539062 109.058594 146.953125 105.234375 C 147.203125 104.988281 147.390625 104.703125 147.523438 104.378906 C 147.660156 104.054688 147.726562 103.71875 147.726562 103.367188 C 147.726562 103.015625 147.660156 102.679688 147.523438 102.355469 C 147.390625 102.035156 147.203125 101.746094 146.953125 101.5 C 146.703125 101.257812 146.417969 101.070312 146.09375 100.9375 C 145.773438 100.804688 145.4375 100.742188 145.089844 100.742188 C 144.738281 100.742188 144.402344 100.804688 144.082031 100.9375 C 143.757812 101.070312 143.472656 101.257812 143.222656 101.5 C 138.636719 105.46875 134.523438 109.878906 130.882812 114.734375 C 127.242188 119.585938 124.160156 124.769531 121.628906 130.285156 C 121.464844 130.589844 121.359375 130.914062 121.320312 131.261719 C 121.277344 131.605469 121.300781 131.945312 121.386719 132.28125 C 121.476562 132.617188 121.625 132.925781 121.832031 133.207031 C 122.035156 133.488281 122.285156 133.71875 122.582031 133.902344 C 122.882812 134.078125 123.207031 134.1875 123.554688 134.234375 C 123.902344 134.28125 124.242188 134.261719 124.582031 134.171875 C 124.921875 134.085938 125.230469 133.9375 125.507812 133.726562 C 125.789062 133.515625 126.019531 133.261719 126.199219 132.960938 Z M 126.199219 132.960938 " fill-opacity="1" fill-rule="nonzero"/><path fill="#ffffff" d="M 153.691406 101.371094 L 156.863281 99.257812 C 157.164062 99.085938 157.410156 98.859375 157.601562 98.566406 C 158.089844 98 158.261719 97.347656 158.121094 96.609375 C 158.109375 96.253906 158.003906 95.929688 157.804688 95.636719 C 157.625 95.332031 157.398438 95.074219 157.121094 94.863281 C 156.839844 94.652344 156.53125 94.5 156.191406 94.410156 C 155.851562 94.320312 155.511719 94.300781 155.164062 94.347656 C 154.816406 94.394531 154.488281 94.507812 154.1875 94.683594 L 151.015625 96.800781 C 150.425781 97.1875 150.019531 97.71875 149.796875 98.386719 C 149.683594 98.734375 149.664062 99.089844 149.746094 99.445312 C 149.765625 99.800781 149.871094 100.128906 150.0625 100.429688 C 150.414062 101.023438 150.917969 101.417969 151.574219 101.617188 C 152.316406 101.855469 153.023438 101.773438 153.691406 101.371094 Z M 153.691406 101.371094 " fill-opacity="1" fill-rule="nonzero"/><path fill="#ffffff" d="M 190.582031 177.949219 C 202.621094 193.605469 214.378906 209.476562 225.847656 225.570312 C 229.125 230.183594 232.386719 234.820312 235.628906 239.476562 C 235.8125 239.769531 236.042969 240.019531 236.324219 240.226562 C 236.605469 240.433594 236.910156 240.582031 237.25 240.667969 C 237.585938 240.753906 237.925781 240.777344 238.269531 240.734375 C 238.613281 240.691406 238.941406 240.585938 239.242188 240.417969 C 239.542969 240.238281 239.800781 240.011719 240.011719 239.730469 C 240.222656 239.449219 240.371094 239.140625 240.460938 238.804688 C 240.550781 238.464844 240.570312 238.121094 240.523438 237.773438 C 240.480469 237.429688 240.371094 237.101562 240.195312 236.796875 C 228.917969 220.570312 217.335938 204.578125 205.449219 188.816406 C 202.039062 184.289062 198.601562 179.78125 195.140625 175.292969 C 194.957031 174.996094 194.722656 174.746094 194.445312 174.539062 C 194.164062 174.335938 193.855469 174.1875 193.519531 174.097656 C 193.183594 174.011719 192.84375 173.988281 192.5 174.027344 C 192.152344 174.070312 191.828125 174.171875 191.523438 174.339844 C 191.222656 174.519531 190.96875 174.75 190.757812 175.027344 C 190.550781 175.308594 190.402344 175.617188 190.3125 175.957031 C 190.226562 176.296875 190.203125 176.636719 190.25 176.984375 C 190.296875 177.332031 190.40625 177.65625 190.582031 177.960938 Z M 190.582031 177.949219 " fill-opacity="1" fill-rule="nonzero"/><path fill="#ffffff" d="M 244.761719 251.644531 C 245.511719 252.484375 246.242188 253.332031 246.953125 254.1875 C 247.324219 254.628906 247.683594 255.085938 248.007812 255.539062 C 248.199219 255.773438 248.105469 255.644531 248.007812 255.488281 L 248.253906 255.804688 L 248.804688 256.535156 C 250.15625 258.367188 251.414062 260.25 252.597656 262.195312 C 252.777344 262.5 253.003906 262.757812 253.285156 262.96875 C 253.566406 263.179688 253.875 263.328125 254.214844 263.417969 C 254.554688 263.507812 254.894531 263.527344 255.242188 263.480469 C 255.589844 263.429688 255.914062 263.316406 256.21875 263.140625 C 256.519531 262.964844 256.777344 262.734375 256.988281 262.453125 C 257.203125 262.175781 257.351562 261.867188 257.441406 261.527344 C 257.53125 261.1875 257.550781 260.84375 257.503906 260.496094 C 257.457031 260.148438 257.34375 259.824219 257.167969 259.519531 C 254.640625 255.375 251.757812 251.492188 248.515625 247.878906 C 248.265625 247.632812 247.980469 247.445312 247.65625 247.3125 C 247.332031 247.179688 246.996094 247.113281 246.644531 247.113281 C 246.296875 247.113281 245.957031 247.179688 245.636719 247.3125 C 245.3125 247.445312 245.023438 247.632812 244.773438 247.878906 C 244.53125 248.128906 244.347656 248.417969 244.21875 248.742188 C 244.085938 249.066406 244.023438 249.402344 244.023438 249.75 C 244.023438 250.101562 244.085938 250.4375 244.21875 250.761719 C 244.347656 251.085938 244.53125 251.371094 244.773438 251.625 Z M 244.761719 251.644531 " fill-opacity="1" fill-rule="nonzero"/><path fill="#ffffff" d="M 288.234375 302.644531 C 288.109375 303.261719 287.921875 303.863281 287.671875 304.441406 L 287.949219 303.808594 C 287.625 304.5625 287.21875 305.265625 286.730469 305.925781 L 287.144531 305.382812 C 286.632812 306.050781 286.046875 306.644531 285.390625 307.164062 L 285.929688 306.75 C 285.277344 307.265625 284.574219 307.6875 283.8125 308.019531 L 284.449219 307.753906 C 284.195312 307.859375 283.929688 307.957031 283.664062 308.039062 C 283.328125 308.132812 283.019531 308.285156 282.742188 308.5 C 282.464844 308.714844 282.238281 308.976562 282.0625 309.28125 C 281.890625 309.585938 281.78125 309.910156 281.738281 310.261719 C 281.695312 310.609375 281.722656 310.953125 281.816406 311.289062 C 281.914062 311.625 282.070312 311.929688 282.289062 312.203125 C 282.503906 312.476562 282.765625 312.703125 283.070312 312.875 C 283.375 313.046875 283.699219 313.15625 284.042969 313.203125 C 284.390625 313.25 284.734375 313.230469 285.070312 313.140625 C 286.097656 312.816406 287.0625 312.363281 287.96875 311.785156 C 288.875 311.207031 289.695312 310.519531 290.421875 309.726562 C 291.148438 308.933594 291.765625 308.0625 292.265625 307.109375 C 292.765625 306.15625 293.132812 305.152344 293.371094 304.105469 C 293.554688 303.390625 293.464844 302.714844 293.109375 302.074219 C 292.929688 301.769531 292.703125 301.511719 292.425781 301.300781 C 292.144531 301.085938 291.835938 300.9375 291.496094 300.847656 C 291.15625 300.757812 290.8125 300.734375 290.46875 300.785156 C 290.121094 300.832031 289.792969 300.941406 289.492188 301.121094 C 288.871094 301.480469 288.464844 302.003906 288.273438 302.695312 Z M 288.234375 302.644531 " fill-opacity="1" fill-rule="nonzero"/><path fill="#ffffff" d="M 196.800781 62.523438 C 193.542969 62.703125 190.75 64.144531 188.035156 65.847656 C 185.316406 67.550781 182.746094 69.265625 180.15625 71.136719 C 174.949219 74.808594 169.957031 78.75 165.171875 82.957031 C 162.625 85.222656 166.378906 88.960938 168.917969 86.703125 C 173.226562 82.886719 177.726562 79.308594 182.417969 75.972656 C 184.734375 74.324219 187.082031 72.800781 189.460938 71.222656 C 191.671875 69.816406 194.09375 67.996094 196.800781 67.847656 C 200.183594 67.667969 200.203125 62.375 196.800781 62.554688 Z M 196.800781 62.523438 " fill-opacity="1" fill-rule="nonzero"/><path fill="#ffffff" d="M 96.050781 129.945312 C 88.296875 134.25 81.40625 139.660156 75.378906 146.167969 C 75.136719 146.417969 74.949219 146.707031 74.820312 147.03125 C 74.691406 147.351562 74.625 147.6875 74.625 148.035156 C 74.625 148.386719 74.691406 148.722656 74.820312 149.042969 C 74.949219 149.367188 75.136719 149.652344 75.378906 149.90625 C 75.628906 150.152344 75.914062 150.339844 76.238281 150.472656 C 76.558594 150.605469 76.894531 150.671875 77.246094 150.671875 C 77.59375 150.671875 77.929688 150.605469 78.253906 150.472656 C 78.578125 150.339844 78.863281 150.152344 79.113281 149.90625 C 84.816406 143.710938 91.347656 138.566406 98.707031 134.476562 C 101.675781 132.8125 99.011719 128.242188 96.03125 129.902344 Z M 96.050781 129.945312 " fill-opacity="1" fill-rule="nonzero"/></svg>