<svg xmlns="http://www.w3.org/2000/svg" xmlns:xlink="http://www.w3.org/1999/xlink" width="1080" zoomAndPan="magnify" viewBox="0 0 810 809.999993" height="1080" preserveAspectRatio="xMidYMid meet" version="1.0"><defs><clipPath id="30f0fab5a1"><path d="M 149 159.007812 L 639 159.007812 L 639 649 L 149 649 Z M 149 159.007812 " clip-rule="nonzero"/></clipPath></defs><path fill="#0dc788" d="M 297.726562 492.910156 C 298.394531 493.578125 298.992188 494.304688 299.515625 495.089844 C 300.042969 495.878906 300.488281 496.707031 300.847656 497.578125 C 301.210938 498.453125 301.484375 499.351562 301.667969 500.28125 C 301.851562 501.207031 301.945312 502.140625 301.945312 503.085938 C 301.945312 504.03125 301.851562 504.96875 301.667969 505.894531 C 301.484375 506.820312 301.210938 507.722656 300.847656 508.59375 C 300.488281 509.46875 300.042969 510.296875 299.515625 511.082031 C 298.992188 511.867188 298.394531 512.59375 297.726562 513.261719 L 288.90625 522.0625 C 288.238281 522.726562 287.511719 523.324219 286.726562 523.847656 C 285.941406 524.371094 285.113281 524.8125 284.242188 525.175781 C 283.367188 525.535156 282.46875 525.808594 281.542969 525.992188 C 280.617188 526.175781 279.683594 526.265625 278.742188 526.265625 C 277.796875 526.265625 276.863281 526.175781 275.9375 525.992188 C 275.011719 525.808594 274.113281 525.535156 273.242188 525.175781 C 272.367188 524.8125 271.539062 524.371094 270.753906 523.847656 C 269.96875 523.324219 269.246094 522.726562 268.578125 522.0625 L 172.976562 426.484375 C 172.308594 425.816406 171.710938 425.089844 171.1875 424.304688 C 170.660156 423.519531 170.21875 422.691406 169.855469 421.816406 C 169.492188 420.945312 169.21875 420.042969 169.035156 419.117188 C 168.851562 418.191406 168.757812 417.253906 168.757812 416.308594 C 168.757812 415.363281 168.851562 414.429688 169.035156 413.5 C 169.21875 412.574219 169.492188 411.675781 169.855469 410.800781 C 170.21875 409.929688 170.660156 409.097656 171.1875 408.3125 C 171.710938 407.527344 172.308594 406.800781 172.976562 406.132812 L 181.800781 397.3125 C 182.46875 396.644531 183.191406 396.050781 183.976562 395.527344 C 184.761719 395.003906 185.589844 394.558594 186.464844 394.199219 C 187.335938 393.839844 188.234375 393.566406 189.160156 393.382812 C 190.085938 393.199219 191.019531 393.105469 191.964844 393.105469 C 192.90625 393.105469 193.839844 393.199219 194.765625 393.382812 C 195.691406 393.566406 196.589844 393.839844 197.464844 394.199219 C 198.335938 394.558594 199.164062 395.003906 199.949219 395.527344 C 200.734375 396.050781 201.460938 396.644531 202.128906 397.3125 Z M 297.726562 492.910156 " fill-opacity="1" fill-rule="nonzero"/><path fill="#0dc788" d="M 512.65625 277.980469 C 513.324219 278.648438 513.921875 279.375 514.449219 280.160156 C 514.972656 280.945312 515.417969 281.777344 515.777344 282.648438 C 516.140625 283.523438 516.414062 284.421875 516.597656 285.347656 C 516.78125 286.277344 516.875 287.210938 516.875 288.15625 C 516.875 289.101562 516.78125 290.039062 516.597656 290.964844 C 516.414062 291.890625 516.140625 292.792969 515.777344 293.664062 C 515.417969 294.539062 514.972656 295.367188 514.449219 296.152344 C 513.921875 296.9375 513.324219 297.664062 512.65625 298.332031 L 503.835938 307.128906 C 503.167969 307.800781 502.441406 308.394531 501.65625 308.921875 C 500.871094 309.445312 500.039062 309.890625 499.167969 310.253906 C 498.292969 310.613281 497.394531 310.886719 496.46875 311.070312 C 495.539062 311.257812 494.605469 311.347656 493.660156 311.347656 C 492.714844 311.347656 491.777344 311.257812 490.851562 311.070312 C 489.925781 310.886719 489.023438 310.613281 488.152344 310.253906 C 487.277344 309.890625 486.449219 309.445312 485.664062 308.921875 C 484.878906 308.394531 484.152344 307.800781 483.484375 307.128906 L 387.90625 211.554688 C 387.238281 210.886719 386.640625 210.160156 386.117188 209.375 C 385.589844 208.589844 385.148438 207.761719 384.785156 206.886719 C 384.425781 206.015625 384.152344 205.113281 383.964844 204.1875 C 383.78125 203.261719 383.691406 202.324219 383.691406 201.378906 C 383.691406 200.433594 383.78125 199.5 383.964844 198.570312 C 384.152344 197.644531 384.425781 196.746094 384.785156 195.871094 C 385.148438 195 385.589844 194.167969 386.117188 193.382812 C 386.640625 192.597656 387.238281 191.871094 387.90625 191.203125 L 396.730469 182.382812 C 397.398438 181.714844 398.125 181.121094 398.910156 180.59375 C 399.691406 180.070312 400.523438 179.628906 401.394531 179.269531 C 402.265625 178.90625 403.164062 178.636719 404.089844 178.453125 C 405.015625 178.265625 405.949219 178.175781 406.894531 178.175781 C 407.835938 178.175781 408.773438 178.265625 409.699219 178.453125 C 410.621094 178.636719 411.523438 178.90625 412.394531 179.269531 C 413.265625 179.628906 414.09375 180.070312 414.878906 180.59375 C 415.664062 181.121094 416.390625 181.714844 417.058594 182.382812 Z M 512.65625 277.980469 " fill-opacity="1" fill-rule="nonzero"/><path fill="#0dc788" d="M 386.0625 429.328125 L 419.972656 395.4375 L 611.449219 587.046875 L 577.535156 620.933594 Z M 386.0625 429.328125 " fill-opacity="1" fill-rule="nonzero"/><path fill="#0dc788" d="M 458.578125 309.359375 C 459.242188 310.027344 459.839844 310.753906 460.363281 311.539062 C 460.886719 312.324219 461.328125 313.152344 461.691406 314.023438 C 462.050781 314.894531 462.324219 315.792969 462.507812 316.71875 C 462.691406 317.644531 462.78125 318.582031 462.78125 319.523438 C 462.78125 320.46875 462.691406 321.402344 462.507812 322.328125 C 462.324219 323.253906 462.050781 324.152344 461.691406 325.023438 C 461.328125 325.894531 460.886719 326.722656 460.363281 327.507812 C 459.839844 328.292969 459.242188 329.019531 458.578125 329.6875 L 401.929688 386.355469 L 358.949219 429.363281 L 320.285156 468.003906 C 319.617188 468.671875 318.890625 469.269531 318.105469 469.796875 C 317.316406 470.320312 316.488281 470.765625 315.617188 471.125 C 314.742188 471.488281 313.84375 471.761719 312.914062 471.945312 C 311.988281 472.128906 311.054688 472.222656 310.109375 472.222656 C 309.164062 472.222656 308.226562 472.128906 307.300781 471.945312 C 306.371094 471.761719 305.472656 471.488281 304.601562 471.125 C 303.726562 470.765625 302.898438 470.320312 302.113281 469.796875 C 301.328125 469.269531 300.601562 468.671875 299.933594 468.003906 L 227.105469 395.105469 C 226.4375 394.4375 225.839844 393.710938 225.316406 392.925781 C 224.789062 392.140625 224.34375 391.3125 223.984375 390.4375 C 223.621094 389.566406 223.347656 388.664062 223.164062 387.738281 C 222.980469 386.8125 222.886719 385.875 222.886719 384.929688 C 222.886719 383.984375 222.980469 383.050781 223.164062 382.121094 C 223.347656 381.195312 223.621094 380.296875 223.984375 379.421875 C 224.34375 378.550781 224.789062 377.71875 225.316406 376.933594 C 225.839844 376.148438 226.4375 375.421875 227.105469 374.753906 L 365.421875 236.4375 C 366.089844 235.769531 366.816406 235.171875 367.601562 234.648438 C 368.386719 234.121094 369.21875 233.679688 370.089844 233.316406 C 370.964844 232.953125 371.863281 232.679688 372.789062 232.496094 C 373.71875 232.3125 374.652344 232.21875 375.597656 232.21875 C 376.542969 232.21875 377.480469 232.3125 378.40625 232.496094 C 379.332031 232.679688 380.234375 232.953125 381.105469 233.316406 C 381.980469 233.679688 382.808594 234.121094 383.59375 234.648438 C 384.378906 235.171875 385.105469 235.769531 385.773438 236.4375 Z M 458.578125 309.359375 " fill-opacity="1" fill-rule="nonzero"/><g clip-path="url(#30f0fab5a1)"><path fill="#006847" d="M 638.605469 587 L 577.570312 648.03125 L 372.492188 442.953125 L 333.828125 481.597656 C 331.722656 483.710938 329.375 485.507812 326.785156 486.984375 C 324.191406 488.460938 321.449219 489.566406 318.558594 490.296875 C 319.191406 491.820312 319.707031 493.378906 320.109375 494.976562 C 320.511719 496.574219 320.792969 498.191406 320.957031 499.832031 C 321.121094 501.472656 321.164062 503.113281 321.085938 504.761719 C 321.007812 506.40625 320.8125 508.035156 320.492188 509.652344 C 320.175781 511.269531 319.738281 512.855469 319.1875 514.40625 C 318.636719 515.960938 317.972656 517.464844 317.203125 518.917969 C 316.429688 520.375 315.554688 521.761719 314.574219 523.089844 C 313.597656 524.414062 312.527344 525.664062 311.367188 526.832031 L 302.542969 535.652344 C 301.765625 536.429688 300.953125 537.167969 300.105469 537.863281 C 299.253906 538.5625 298.371094 539.214844 297.457031 539.828125 C 296.542969 540.4375 295.601562 541.003906 294.632812 541.519531 C 293.664062 542.039062 292.671875 542.507812 291.65625 542.929688 C 290.640625 543.347656 289.605469 543.71875 288.554688 544.039062 C 287.503906 544.359375 286.4375 544.625 285.359375 544.839844 C 284.28125 545.054688 283.195312 545.214844 282.101562 545.320312 C 281.007812 545.429688 279.910156 545.484375 278.8125 545.484375 C 277.714844 545.484375 276.617188 545.429688 275.523438 545.320312 C 274.429688 545.214844 273.34375 545.054688 272.265625 544.839844 C 271.1875 544.625 270.121094 544.359375 269.070312 544.039062 C 268.019531 543.71875 266.984375 543.347656 265.96875 542.929688 C 264.953125 542.507812 263.960938 542.039062 262.992188 541.519531 C 262.023438 541.003906 261.082031 540.4375 260.167969 539.828125 C 259.253906 539.214844 258.371094 538.5625 257.519531 537.863281 C 256.671875 537.167969 255.859375 536.429688 255.082031 535.652344 L 159.410156 440.03125 C 158.632812 439.253906 157.898438 438.4375 157.199219 437.589844 C 156.503906 436.742188 155.851562 435.859375 155.242188 434.945312 C 154.628906 434.03125 154.066406 433.089844 153.550781 432.121094 C 153.03125 431.152344 152.5625 430.160156 152.140625 429.144531 C 151.722656 428.128906 151.351562 427.097656 151.035156 426.046875 C 150.714844 424.996094 150.449219 423.929688 150.234375 422.851562 C 150.019531 421.777344 149.859375 420.691406 149.753906 419.597656 C 149.644531 418.503906 149.589844 417.410156 149.589844 416.308594 C 149.589844 415.210938 149.644531 414.117188 149.753906 413.023438 C 149.859375 411.929688 150.019531 410.84375 150.234375 409.765625 C 150.449219 408.6875 150.714844 407.625 151.035156 406.574219 C 151.351562 405.523438 151.722656 404.488281 152.140625 403.472656 C 152.5625 402.457031 153.03125 401.464844 153.550781 400.496094 C 154.066406 399.527344 154.628906 398.585938 155.242188 397.675781 C 155.851562 396.761719 156.503906 395.878906 157.199219 395.03125 C 157.898438 394.179688 158.632812 393.367188 159.410156 392.589844 L 168.230469 383.769531 C 169.398438 382.605469 170.648438 381.535156 171.972656 380.558594 C 173.300781 379.582031 174.6875 378.707031 176.144531 377.933594 C 177.597656 377.160156 179.101562 376.496094 180.65625 375.945312 C 182.207031 375.394531 183.792969 374.960938 185.410156 374.640625 C 187.023438 374.324219 188.65625 374.125 190.300781 374.046875 C 191.949219 373.96875 193.589844 374.011719 195.230469 374.175781 C 196.867188 374.339844 198.488281 374.621094 200.085938 375.023438 C 201.683594 375.425781 203.242188 375.945312 204.765625 376.578125 C 205.507812 373.6875 206.621094 370.945312 208.101562 368.355469 C 209.582031 365.765625 211.378906 363.414062 213.488281 361.304688 L 351.757812 222.894531 C 353.871094 220.78125 356.226562 218.980469 358.820312 217.496094 C 361.414062 216.011719 364.160156 214.894531 367.050781 214.144531 C 366.421875 212.625 365.90625 211.066406 365.503906 209.46875 C 365.101562 207.871094 364.820312 206.253906 364.65625 204.617188 C 364.496094 202.976562 364.453125 201.335938 364.53125 199.691406 C 364.609375 198.046875 364.808594 196.417969 365.125 194.800781 C 365.441406 193.1875 365.878906 191.601562 366.429688 190.050781 C 366.980469 188.5 367.640625 186.996094 368.414062 185.542969 C 369.1875 184.089844 370.0625 182.699219 371.039062 181.375 C 372.015625 180.050781 373.082031 178.804688 374.242188 177.636719 L 383.160156 168.835938 C 383.9375 168.058594 384.753906 167.324219 385.601562 166.625 C 386.453125 165.929688 387.332031 165.273438 388.246094 164.664062 C 389.160156 164.054688 390.101562 163.488281 391.074219 162.96875 C 392.042969 162.453125 393.035156 161.984375 394.050781 161.5625 C 395.066406 161.140625 396.097656 160.769531 397.152344 160.453125 C 398.203125 160.132812 399.269531 159.867188 400.347656 159.652344 C 401.425781 159.4375 402.511719 159.277344 403.605469 159.167969 C 404.699219 159.0625 405.792969 159.007812 406.894531 159.007812 C 407.992188 159.007812 409.089844 159.0625 410.183594 159.167969 C 411.277344 159.277344 412.363281 159.4375 413.441406 159.652344 C 414.519531 159.867188 415.585938 160.132812 416.636719 160.453125 C 417.6875 160.769531 418.722656 161.140625 419.738281 161.5625 C 420.753906 161.984375 421.746094 162.453125 422.714844 162.96875 C 423.683594 163.488281 424.625 164.054688 425.539062 164.664062 C 426.453125 165.273438 427.335938 165.929688 428.183594 166.625 C 429.035156 167.324219 429.847656 168.058594 430.625 168.835938 L 526.226562 264.484375 C 527 265.261719 527.738281 266.074219 528.4375 266.925781 C 529.132812 267.773438 529.789062 268.65625 530.398438 269.570312 C 531.007812 270.484375 531.574219 271.425781 532.09375 272.394531 C 532.609375 273.363281 533.078125 274.359375 533.5 275.375 C 533.921875 276.386719 534.292969 277.421875 534.609375 278.472656 C 534.929688 279.527344 535.195312 280.589844 535.410156 281.667969 C 535.625 282.746094 535.785156 283.832031 535.894531 284.925781 C 536 286.019531 536.054688 287.117188 536.054688 288.21875 C 536.054688 289.316406 536 290.414062 535.894531 291.507812 C 535.785156 292.601562 535.625 293.6875 535.410156 294.765625 C 535.195312 295.84375 534.929688 296.90625 534.609375 297.960938 C 534.292969 299.011719 533.921875 300.046875 533.5 301.0625 C 533.078125 302.078125 532.609375 303.070312 532.09375 304.039062 C 531.574219 305.007812 531.007812 305.949219 530.398438 306.863281 C 529.789062 307.777344 529.132812 308.660156 528.4375 309.507812 C 527.738281 310.359375 527 311.171875 526.226562 311.949219 L 517.402344 320.769531 C 516.234375 321.933594 514.988281 323 513.660156 323.980469 C 512.335938 324.957031 510.945312 325.832031 509.488281 326.605469 C 508.035156 327.378906 506.53125 328.039062 504.980469 328.59375 C 503.425781 329.144531 501.84375 329.578125 500.226562 329.898438 C 498.609375 330.214844 496.976562 330.414062 495.332031 330.492188 C 493.6875 330.570312 492.042969 330.527344 490.40625 330.363281 C 488.765625 330.199219 487.148438 329.914062 485.550781 329.511719 C 483.953125 329.109375 482.390625 328.59375 480.871094 327.960938 C 480.125 330.851562 479.011719 333.589844 477.53125 336.183594 C 476.050781 338.773438 474.253906 341.125 472.144531 343.230469 L 433.503906 381.945312 Z M 577.570312 620.894531 L 611.492188 587 L 419.933594 395.464844 L 386.039062 429.363281 Z M 512.65625 298.332031 C 513.324219 297.664062 513.921875 296.9375 514.449219 296.152344 C 514.972656 295.367188 515.417969 294.539062 515.777344 293.664062 C 516.140625 292.792969 516.414062 291.890625 516.597656 290.964844 C 516.78125 290.039062 516.875 289.101562 516.875 288.15625 C 516.875 287.210938 516.78125 286.277344 516.597656 285.347656 C 516.414062 284.421875 516.140625 283.523438 515.777344 282.648438 C 515.417969 281.777344 514.972656 280.945312 514.449219 280.160156 C 513.921875 279.375 513.324219 278.648438 512.65625 277.980469 L 417.058594 182.382812 C 416.390625 181.714844 415.664062 181.121094 414.878906 180.59375 C 414.09375 180.070312 413.265625 179.628906 412.394531 179.269531 C 411.523438 178.90625 410.621094 178.636719 409.699219 178.453125 C 408.773438 178.265625 407.835938 178.175781 406.894531 178.175781 C 405.949219 178.175781 405.015625 178.265625 404.089844 178.453125 C 403.164062 178.636719 402.265625 178.90625 401.394531 179.269531 C 400.523438 179.628906 399.691406 180.070312 398.910156 180.59375 C 398.125 181.121094 397.398438 181.714844 396.730469 182.382812 L 387.90625 191.203125 C 387.238281 191.871094 386.640625 192.597656 386.117188 193.382812 C 385.589844 194.167969 385.148438 195 384.785156 195.871094 C 384.425781 196.746094 384.152344 197.644531 383.964844 198.570312 C 383.78125 199.5 383.691406 200.433594 383.691406 201.378906 C 383.691406 202.324219 383.78125 203.261719 383.964844 204.1875 C 384.152344 205.113281 384.425781 206.015625 384.785156 206.886719 C 385.148438 207.761719 385.589844 208.589844 386.117188 209.375 C 386.640625 210.160156 387.238281 210.886719 387.90625 211.554688 L 483.601562 307.128906 C 484.269531 307.800781 484.996094 308.394531 485.785156 308.921875 C 486.570312 309.445312 487.398438 309.890625 488.269531 310.253906 C 489.144531 310.613281 490.042969 310.886719 490.972656 311.070312 C 491.898438 311.257812 492.832031 311.347656 493.777344 311.347656 C 494.722656 311.347656 495.660156 311.257812 496.585938 311.070312 C 497.515625 310.886719 498.414062 310.613281 499.285156 310.253906 C 500.160156 309.890625 500.988281 309.445312 501.773438 308.921875 C 502.558594 308.394531 503.289062 307.800781 503.953125 307.128906 Z M 462.796875 319.621094 C 462.804688 317.710938 462.441406 315.875 461.710938 314.113281 C 460.976562 312.351562 459.933594 310.796875 458.578125 309.457031 L 385.703125 236.558594 C 385.035156 235.890625 384.308594 235.292969 383.523438 234.765625 C 382.738281 234.242188 381.90625 233.796875 381.035156 233.4375 C 380.160156 233.074219 379.261719 232.800781 378.335938 232.617188 C 377.40625 232.433594 376.472656 232.339844 375.527344 232.339844 C 374.582031 232.339844 373.644531 232.433594 372.71875 232.617188 C 371.792969 232.800781 370.890625 233.074219 370.019531 233.4375 C 369.144531 233.796875 368.316406 234.242188 367.53125 234.765625 C 366.746094 235.292969 366.019531 235.890625 365.351562 236.558594 L 227.105469 374.753906 C 226.4375 375.421875 225.84375 376.148438 225.320312 376.933594 C 224.796875 377.71875 224.351562 378.546875 223.992188 379.417969 C 223.632812 380.289062 223.359375 381.1875 223.175781 382.113281 C 222.992188 383.039062 222.898438 383.976562 222.898438 384.917969 C 222.898438 385.863281 222.992188 386.796875 223.175781 387.722656 C 223.359375 388.648438 223.632812 389.546875 223.992188 390.417969 C 224.351562 391.289062 224.796875 392.117188 225.320312 392.902344 C 225.84375 393.6875 226.4375 394.414062 227.105469 395.082031 L 300.003906 467.980469 C 300.671875 468.648438 301.398438 469.246094 302.183594 469.773438 C 302.96875 470.296875 303.796875 470.742188 304.671875 471.101562 C 305.542969 471.464844 306.445312 471.738281 307.371094 471.921875 C 308.296875 472.105469 309.234375 472.199219 310.179688 472.199219 C 311.125 472.199219 312.0625 472.105469 312.988281 471.921875 C 313.914062 471.738281 314.8125 471.464844 315.6875 471.101562 C 316.558594 470.742188 317.390625 470.296875 318.175781 469.773438 C 318.960938 469.246094 319.6875 468.648438 320.355469 467.980469 L 358.949219 429.363281 L 401.957031 386.355469 L 458.578125 329.6875 C 459.921875 328.359375 460.960938 326.820312 461.691406 325.074219 C 462.421875 323.332031 462.789062 321.511719 462.796875 319.621094 Z M 297.726562 513.359375 C 298.394531 512.691406 298.992188 511.964844 299.515625 511.179688 C 300.042969 510.394531 300.488281 509.5625 300.847656 508.691406 C 301.210938 507.816406 301.484375 506.917969 301.667969 505.992188 C 301.851562 505.0625 301.945312 504.128906 301.945312 503.183594 C 301.945312 502.238281 301.851562 501.300781 301.667969 500.375 C 301.484375 499.449219 301.210938 498.546875 300.847656 497.675781 C 300.488281 496.800781 300.042969 495.972656 299.515625 495.1875 C 298.992188 494.402344 298.394531 493.675781 297.726562 493.007812 L 202.128906 397.3125 C 201.460938 396.644531 200.734375 396.050781 199.949219 395.527344 C 199.164062 395.003906 198.335938 394.558594 197.464844 394.199219 C 196.589844 393.839844 195.691406 393.566406 194.765625 393.382812 C 193.839844 393.199219 192.90625 393.105469 191.964844 393.105469 C 191.019531 393.105469 190.085938 393.199219 189.160156 393.382812 C 188.234375 393.566406 187.335938 393.839844 186.464844 394.199219 C 185.589844 394.558594 184.761719 395.003906 183.976562 395.527344 C 183.191406 396.050781 182.46875 396.644531 181.800781 397.3125 L 172.976562 406.132812 C 172.308594 406.800781 171.710938 407.527344 171.1875 408.3125 C 170.660156 409.097656 170.21875 409.929688 169.855469 410.800781 C 169.492188 411.675781 169.21875 412.574219 169.035156 413.5 C 168.851562 414.429688 168.757812 415.363281 168.757812 416.308594 C 168.757812 417.253906 168.851562 418.191406 169.035156 419.117188 C 169.21875 420.042969 169.492188 420.945312 169.855469 421.816406 C 170.21875 422.691406 170.660156 423.519531 171.1875 424.304688 C 171.710938 425.089844 172.308594 425.816406 172.976562 426.484375 L 268.578125 522.0625 C 269.246094 522.726562 269.96875 523.324219 270.753906 523.847656 C 271.539062 524.371094 272.367188 524.8125 273.242188 525.175781 C 274.113281 525.535156 275.011719 525.808594 275.9375 525.992188 C 276.863281 526.175781 277.796875 526.265625 278.742188 526.265625 C 279.683594 526.265625 280.617188 526.175781 281.542969 525.992188 C 282.46875 525.808594 283.367188 525.535156 284.242188 525.175781 C 285.113281 524.8125 285.941406 524.371094 286.726562 523.847656 C 287.511719 523.324219 288.238281 522.726562 288.90625 522.0625 Z M 297.726562 513.359375 " fill-opacity="1" fill-rule="nonzero"/></g></svg>