<svg xmlns="http://www.w3.org/2000/svg" xmlns:xlink="http://www.w3.org/1999/xlink" width="237" zoomAndPan="magnify" viewBox="0 0 177.75 377.249997" height="503" preserveAspectRatio="xMidYMid meet" version="1.0"><defs><clipPath id="88ffc08880"><path d="M 0.0507812 23 L 177.449219 23 L 177.449219 376.5 L 0.0507812 376.5 Z M 0.0507812 23 " clip-rule="nonzero"/></clipPath><clipPath id="a6ac1e7451"><path d="M 111 4 L 155 4 L 155 49 L 111 49 Z M 111 4 " clip-rule="nonzero"/></clipPath><clipPath id="366ffdb3ae"><path d="M 153.980469 25.90625 C 156.613281 18.667969 152.878906 10.664062 145.640625 8.03125 L 137.179688 4.949219 C 129.667969 2.214844 121.363281 6.089844 118.628906 13.597656 L 112.257812 31.113281 C 109.605469 38.402344 119.519531 43.847656 126.851562 46.375 C 134.296875 48.941406 145.140625 50.1875 147.835938 42.785156 Z M 153.980469 25.90625 " clip-rule="nonzero"/></clipPath><linearGradient x1="192.736129" gradientTransform="matrix(0.748512, 0, 0, 0.748512, 0.051588, 0.00000998016)" y1="-3.01884" x2="164.791294" gradientUnits="userSpaceOnUse" y2="73.757841" id="6c63cad7cb"><stop stop-opacity="1" stop-color="rgb(74.899292%, 58.799744%, 64.299011%)" offset="0"/><stop stop-opacity="1" stop-color="rgb(74.899292%, 58.799744%, 64.299011%)" offset="0.125"/><stop stop-opacity="1" stop-color="rgb(74.780273%, 58.705139%, 64.195251%)" offset="0.15625"/><stop stop-opacity="1" stop-color="rgb(74.493408%, 58.480835%, 63.948059%)" offset="0.164063"/><stop stop-opacity="1" stop-color="rgb(74.157715%, 58.218384%, 63.659668%)" offset="0.171875"/><stop stop-opacity="1" stop-color="rgb(73.822021%, 57.955933%, 63.369751%)" offset="0.179688"/><stop stop-opacity="1" stop-color="rgb(73.486328%, 57.693481%, 63.079834%)" offset="0.1875"/><stop stop-opacity="1" stop-color="rgb(73.150635%, 57.43103%, 62.791443%)" offset="0.195313"/><stop stop-opacity="1" stop-color="rgb(72.814941%, 57.168579%, 62.501526%)" offset="0.203125"/><stop stop-opacity="1" stop-color="rgb(72.480774%, 56.906128%, 62.213135%)" offset="0.210938"/><stop stop-opacity="1" stop-color="rgb(72.145081%, 56.643677%, 61.923218%)" offset="0.21875"/><stop stop-opacity="1" stop-color="rgb(71.809387%, 56.381226%, 61.633301%)" offset="0.226563"/><stop stop-opacity="1" stop-color="rgb(71.473694%, 56.118774%, 61.34491%)" offset="0.234375"/><stop stop-opacity="1" stop-color="rgb(71.138%, 55.856323%, 61.054993%)" offset="0.242188"/><stop stop-opacity="1" stop-color="rgb(70.802307%, 55.593872%, 60.766602%)" offset="0.25"/><stop stop-opacity="1" stop-color="rgb(70.46814%, 55.331421%, 60.476685%)" offset="0.257812"/><stop stop-opacity="1" stop-color="rgb(70.132446%, 55.06897%, 60.186768%)" offset="0.262906"/><stop stop-opacity="1" stop-color="rgb(69.9646%, 54.937744%, 60.043335%)" offset="0.265625"/><stop stop-opacity="1" stop-color="rgb(69.796753%, 54.806519%, 59.898376%)" offset="0.273438"/><stop stop-opacity="1" stop-color="rgb(69.46106%, 54.544067%, 59.608459%)" offset="0.28125"/><stop stop-opacity="1" stop-color="rgb(69.125366%, 54.281616%, 59.320068%)" offset="0.289062"/><stop stop-opacity="1" stop-color="rgb(68.789673%, 54.019165%, 59.030151%)" offset="0.296875"/><stop stop-opacity="1" stop-color="rgb(68.455505%, 53.756714%, 58.740234%)" offset="0.304688"/><stop stop-opacity="1" stop-color="rgb(68.119812%, 53.494263%, 58.451843%)" offset="0.3125"/><stop stop-opacity="1" stop-color="rgb(67.784119%, 53.231812%, 58.161926%)" offset="0.320312"/><stop stop-opacity="1" stop-color="rgb(67.448425%, 52.96936%, 57.872009%)" offset="0.328125"/><stop stop-opacity="1" stop-color="rgb(67.112732%, 52.706909%, 57.583618%)" offset="0.335938"/><stop stop-opacity="1" stop-color="rgb(66.777039%, 52.444458%, 57.293701%)" offset="0.34375"/><stop stop-opacity="1" stop-color="rgb(66.441345%, 52.182007%, 57.00531%)" offset="0.351563"/><stop stop-opacity="1" stop-color="rgb(66.107178%, 51.919556%, 56.715393%)" offset="0.359375"/><stop stop-opacity="1" stop-color="rgb(65.771484%, 51.657104%, 56.425476%)" offset="0.367188"/><stop stop-opacity="1" stop-color="rgb(65.435791%, 51.394653%, 56.137085%)" offset="0.375"/><stop stop-opacity="1" stop-color="rgb(65.100098%, 51.132202%, 55.847168%)" offset="0.382813"/><stop stop-opacity="1" stop-color="rgb(64.764404%, 50.869751%, 55.558777%)" offset="0.390625"/><stop stop-opacity="1" stop-color="rgb(64.428711%, 50.6073%, 55.26886%)" offset="0.398438"/><stop stop-opacity="1" stop-color="rgb(64.094543%, 50.344849%, 54.978943%)" offset="0.40625"/><stop stop-opacity="1" stop-color="rgb(63.75885%, 50.082397%, 54.690552%)" offset="0.414063"/><stop stop-opacity="1" stop-color="rgb(63.423157%, 49.81842%, 54.400635%)" offset="0.421875"/><stop stop-opacity="1" stop-color="rgb(63.087463%, 49.555969%, 54.110718%)" offset="0.429688"/><stop stop-opacity="1" stop-color="rgb(62.75177%, 49.293518%, 53.822327%)" offset="0.4375"/><stop stop-opacity="1" stop-color="rgb(62.416077%, 49.031067%, 53.53241%)" offset="0.445312"/><stop stop-opacity="1" stop-color="rgb(62.081909%, 48.768616%, 53.244019%)" offset="0.453125"/><stop stop-opacity="1" stop-color="rgb(61.746216%, 48.506165%, 52.954102%)" offset="0.460938"/><stop stop-opacity="1" stop-color="rgb(61.410522%, 48.243713%, 52.664185%)" offset="0.46875"/><stop stop-opacity="1" stop-color="rgb(61.074829%, 47.981262%, 52.375793%)" offset="0.476563"/><stop stop-opacity="1" stop-color="rgb(60.739136%, 47.718811%, 52.085876%)" offset="0.484375"/><stop stop-opacity="1" stop-color="rgb(60.403442%, 47.45636%, 51.797485%)" offset="0.492188"/><stop stop-opacity="1" stop-color="rgb(60.069275%, 47.193909%, 51.507568%)" offset="0.5"/><stop stop-opacity="1" stop-color="rgb(59.733582%, 46.931458%, 51.217651%)" offset="0.507813"/><stop stop-opacity="1" stop-color="rgb(59.397888%, 46.669006%, 50.92926%)" offset="0.515625"/><stop stop-opacity="1" stop-color="rgb(59.062195%, 46.406555%, 50.639343%)" offset="0.523438"/><stop stop-opacity="1" stop-color="rgb(58.726501%, 46.144104%, 50.350952%)" offset="0.53125"/><stop stop-opacity="1" stop-color="rgb(58.390808%, 45.881653%, 50.061035%)" offset="0.539062"/><stop stop-opacity="1" stop-color="rgb(58.055115%, 45.619202%, 49.771118%)" offset="0.546875"/><stop stop-opacity="1" stop-color="rgb(57.720947%, 45.35675%, 49.482727%)" offset="0.554688"/><stop stop-opacity="1" stop-color="rgb(57.385254%, 45.094299%, 49.19281%)" offset="0.5625"/><stop stop-opacity="1" stop-color="rgb(57.049561%, 44.831848%, 48.902893%)" offset="0.570312"/><stop stop-opacity="1" stop-color="rgb(56.713867%, 44.569397%, 48.614502%)" offset="0.578125"/><stop stop-opacity="1" stop-color="rgb(56.378174%, 44.306946%, 48.324585%)" offset="0.585938"/><stop stop-opacity="1" stop-color="rgb(56.04248%, 44.044495%, 48.036194%)" offset="0.59375"/><stop stop-opacity="1" stop-color="rgb(55.708313%, 43.782043%, 47.746277%)" offset="0.601562"/><stop stop-opacity="1" stop-color="rgb(55.37262%, 43.519592%, 47.45636%)" offset="0.609375"/><stop stop-opacity="1" stop-color="rgb(55.036926%, 43.257141%, 47.167969%)" offset="0.617188"/><stop stop-opacity="1" stop-color="rgb(54.701233%, 42.99469%, 46.878052%)" offset="0.625"/><stop stop-opacity="1" stop-color="rgb(54.36554%, 42.732239%, 46.589661%)" offset="0.632812"/><stop stop-opacity="1" stop-color="rgb(54.029846%, 42.469788%, 46.299744%)" offset="0.640625"/><stop stop-opacity="1" stop-color="rgb(53.695679%, 42.207336%, 46.009827%)" offset="0.648437"/><stop stop-opacity="1" stop-color="rgb(53.359985%, 41.944885%, 45.721436%)" offset="0.65625"/><stop stop-opacity="1" stop-color="rgb(53.024292%, 41.682434%, 45.431519%)" offset="0.664062"/><stop stop-opacity="1" stop-color="rgb(52.688599%, 41.419983%, 45.143127%)" offset="0.671875"/><stop stop-opacity="1" stop-color="rgb(52.352905%, 41.157532%, 44.85321%)" offset="0.679688"/><stop stop-opacity="1" stop-color="rgb(52.017212%, 40.895081%, 44.563293%)" offset="0.6875"/><stop stop-opacity="1" stop-color="rgb(51.681519%, 40.632629%, 44.274902%)" offset="0.695313"/><stop stop-opacity="1" stop-color="rgb(51.347351%, 40.370178%, 43.984985%)" offset="0.703125"/><stop stop-opacity="1" stop-color="rgb(51.011658%, 40.107727%, 43.695068%)" offset="0.710938"/><stop stop-opacity="1" stop-color="rgb(50.675964%, 39.845276%, 43.406677%)" offset="0.71875"/><stop stop-opacity="1" stop-color="rgb(50.340271%, 39.582825%, 43.11676%)" offset="0.726562"/><stop stop-opacity="1" stop-color="rgb(50.004578%, 39.318848%, 42.828369%)" offset="0.734375"/><stop stop-opacity="1" stop-color="rgb(49.668884%, 39.056396%, 42.538452%)" offset="0.737094"/><stop stop-opacity="1" stop-color="rgb(49.502563%, 38.925171%, 42.393494%)" offset="0.742188"/><stop stop-opacity="1" stop-color="rgb(49.334717%, 38.793945%, 42.248535%)" offset="0.75"/><stop stop-opacity="1" stop-color="rgb(48.999023%, 38.531494%, 41.960144%)" offset="0.757812"/><stop stop-opacity="1" stop-color="rgb(48.66333%, 38.269043%, 41.670227%)" offset="0.765625"/><stop stop-opacity="1" stop-color="rgb(48.327637%, 38.006592%, 41.381836%)" offset="0.773438"/><stop stop-opacity="1" stop-color="rgb(47.991943%, 37.744141%, 41.091919%)" offset="0.78125"/><stop stop-opacity="1" stop-color="rgb(47.65625%, 37.481689%, 40.802002%)" offset="0.789062"/><stop stop-opacity="1" stop-color="rgb(47.322083%, 37.219238%, 40.513611%)" offset="0.796875"/><stop stop-opacity="1" stop-color="rgb(46.986389%, 36.956787%, 40.223694%)" offset="0.804688"/><stop stop-opacity="1" stop-color="rgb(46.650696%, 36.694336%, 39.933777%)" offset="0.8125"/><stop stop-opacity="1" stop-color="rgb(46.315002%, 36.431885%, 39.645386%)" offset="0.820313"/><stop stop-opacity="1" stop-color="rgb(45.979309%, 36.169434%, 39.355469%)" offset="0.828125"/><stop stop-opacity="1" stop-color="rgb(45.643616%, 35.906982%, 39.067078%)" offset="0.835938"/><stop stop-opacity="1" stop-color="rgb(45.309448%, 35.644531%, 38.777161%)" offset="0.84375"/><stop stop-opacity="1" stop-color="rgb(44.973755%, 35.38208%, 38.487244%)" offset="0.851563"/><stop stop-opacity="1" stop-color="rgb(44.638062%, 35.119629%, 38.198853%)" offset="0.859375"/><stop stop-opacity="1" stop-color="rgb(44.302368%, 34.857178%, 37.908936%)" offset="0.867188"/><stop stop-opacity="1" stop-color="rgb(43.966675%, 34.594727%, 37.620544%)" offset="0.875"/><stop stop-opacity="1" stop-color="rgb(43.630981%, 34.332275%, 37.330627%)" offset="0.882812"/><stop stop-opacity="1" stop-color="rgb(43.295288%, 34.069824%, 37.04071%)" offset="0.890625"/><stop stop-opacity="1" stop-color="rgb(42.961121%, 33.807373%, 36.752319%)" offset="0.898438"/><stop stop-opacity="1" stop-color="rgb(42.625427%, 33.544922%, 36.462402%)" offset="0.90625"/><stop stop-opacity="1" stop-color="rgb(42.289734%, 33.282471%, 36.174011%)" offset="0.914062"/><stop stop-opacity="1" stop-color="rgb(41.954041%, 33.02002%, 35.884094%)" offset="0.921875"/><stop stop-opacity="1" stop-color="rgb(41.618347%, 32.757568%, 35.594177%)" offset="0.929688"/><stop stop-opacity="1" stop-color="rgb(41.282654%, 32.495117%, 35.305786%)" offset="0.9375"/><stop stop-opacity="1" stop-color="rgb(40.948486%, 32.232666%, 35.015869%)" offset="0.945312"/><stop stop-opacity="1" stop-color="rgb(40.612793%, 31.970215%, 34.725952%)" offset="0.953125"/><stop stop-opacity="1" stop-color="rgb(40.2771%, 31.707764%, 34.437561%)" offset="0.960938"/><stop stop-opacity="1" stop-color="rgb(39.941406%, 31.445312%, 34.147644%)" offset="0.96875"/><stop stop-opacity="1" stop-color="rgb(39.605713%, 31.182861%, 33.859253%)" offset="0.976562"/><stop stop-opacity="1" stop-color="rgb(39.27002%, 30.92041%, 33.569336%)" offset="0.984375"/><stop stop-opacity="1" stop-color="rgb(38.935852%, 30.657959%, 33.279419%)" offset="0.992188"/><stop stop-opacity="1" stop-color="rgb(38.600159%, 30.395508%, 32.991028%)" offset="1"/></linearGradient></defs><g clip-path="url(#88ffc08880)"><path fill="#674d49" d="M 88.75 23.203125 C 90.203125 23.203125 91.652344 23.238281 93.101562 23.3125 C 94.550781 23.382812 96 23.488281 97.445312 23.632812 C 98.890625 23.773438 100.328125 23.949219 101.765625 24.164062 C 103.199219 24.375 104.628906 24.625 106.054688 24.90625 C 107.476562 25.191406 108.894531 25.507812 110.300781 25.863281 C 111.710938 26.214844 113.109375 26.601562 114.5 27.023438 C 115.886719 27.445312 117.265625 27.898438 118.632812 28.390625 C 120 28.878906 121.351562 29.398438 122.695312 29.957031 C 124.035156 30.511719 125.363281 31.097656 126.671875 31.71875 C 127.984375 32.339844 129.28125 32.992188 130.5625 33.675781 C 131.84375 34.363281 133.105469 35.078125 134.351562 35.824219 C 135.59375 36.570312 136.820312 37.347656 138.027344 38.152344 C 139.234375 38.957031 140.421875 39.792969 141.589844 40.660156 C 142.753906 41.523438 143.898438 42.417969 145.019531 43.335938 C 146.140625 44.257812 147.242188 45.207031 148.316406 46.179688 C 149.390625 47.15625 150.441406 48.15625 151.46875 49.183594 C 152.496094 50.210938 153.496094 51.261719 154.472656 52.335938 C 155.445312 53.410156 156.394531 54.511719 157.316406 55.632812 C 158.234375 56.753906 159.128906 57.898438 159.992188 59.066406 C 160.859375 60.230469 161.695312 61.417969 162.5 62.625 C 163.308594 63.832031 164.082031 65.058594 164.828125 66.300781 C 165.574219 67.546875 166.292969 68.808594 166.976562 70.089844 C 167.660156 71.371094 168.3125 72.667969 168.933594 73.980469 C 169.554688 75.292969 170.140625 76.617188 170.695312 77.960938 C 171.253906 79.300781 171.773438 80.652344 172.265625 82.019531 C 172.753906 83.386719 173.207031 84.765625 173.628906 86.15625 C 174.050781 87.542969 174.4375 88.941406 174.789062 90.351562 C 175.144531 91.757812 175.460938 93.175781 175.746094 94.597656 C 176.027344 96.023438 176.277344 97.453125 176.488281 98.886719 C 176.703125 100.324219 176.878906 101.765625 177.023438 103.207031 C 177.164062 104.652344 177.269531 106.101562 177.34375 107.550781 C 177.414062 109 177.449219 110.449219 177.449219 111.902344 L 177.449219 287.804688 C 177.449219 289.253906 177.414062 290.707031 177.34375 292.15625 C 177.269531 293.605469 177.164062 295.050781 177.023438 296.496094 C 176.878906 297.941406 176.703125 299.382812 176.488281 300.816406 C 176.277344 302.253906 176.027344 303.683594 175.746094 305.105469 C 175.460938 306.53125 175.144531 307.945312 174.789062 309.355469 C 174.4375 310.761719 174.050781 312.160156 173.628906 313.550781 C 173.207031 314.941406 172.753906 316.316406 172.265625 317.683594 C 171.773438 319.050781 171.253906 320.40625 170.695312 321.746094 C 170.140625 323.085938 169.554688 324.414062 168.933594 325.726562 C 168.3125 327.039062 167.660156 328.335938 166.976562 329.613281 C 166.292969 330.894531 165.574219 332.15625 164.828125 333.402344 C 164.082031 334.648438 163.308594 335.875 162.5 337.082031 C 161.695312 338.289062 160.859375 339.472656 159.992188 340.640625 C 159.128906 341.804688 158.234375 342.949219 157.316406 344.074219 C 156.394531 345.195312 155.445312 346.292969 154.472656 347.371094 C 153.496094 348.445312 152.496094 349.496094 151.46875 350.523438 C 150.441406 351.546875 149.390625 352.550781 148.316406 353.523438 C 147.242188 354.5 146.140625 355.445312 145.019531 356.367188 C 143.898438 357.289062 142.753906 358.179688 141.589844 359.046875 C 140.421875 359.910156 139.234375 360.746094 138.027344 361.554688 C 136.820312 362.359375 135.59375 363.136719 134.351562 363.882812 C 133.105469 364.628906 131.84375 365.34375 130.5625 366.027344 C 129.28125 366.710938 127.984375 367.363281 126.671875 367.984375 C 125.363281 368.605469 124.035156 369.195312 122.695312 369.75 C 121.351562 370.304688 120 370.828125 118.632812 371.316406 C 117.265625 371.804688 115.886719 372.261719 114.5 372.683594 C 113.109375 373.101562 111.710938 373.492188 110.300781 373.84375 C 108.894531 374.195312 107.476562 374.515625 106.054688 374.796875 C 104.628906 375.082031 103.199219 375.328125 101.765625 375.542969 C 100.328125 375.753906 98.890625 375.933594 97.445312 376.074219 C 96 376.214844 94.550781 376.324219 93.101562 376.394531 C 91.652344 376.464844 90.203125 376.5 88.75 376.5 C 87.296875 376.5 85.847656 376.464844 84.398438 376.394531 C 82.949219 376.324219 81.5 376.214844 80.054688 376.074219 C 78.613281 375.933594 77.171875 375.753906 75.734375 375.542969 C 74.300781 375.328125 72.871094 375.082031 71.445312 374.796875 C 70.023438 374.515625 68.605469 374.195312 67.199219 373.84375 C 65.789062 373.492188 64.390625 373.101562 63.003906 372.683594 C 61.613281 372.261719 60.234375 371.804688 58.867188 371.316406 C 57.5 370.828125 56.148438 370.304688 54.808594 369.75 C 53.464844 369.195312 52.140625 368.605469 50.828125 367.984375 C 49.515625 367.363281 48.21875 366.710938 46.9375 366.027344 C 45.65625 365.34375 44.394531 364.628906 43.148438 363.882812 C 41.90625 363.136719 40.679688 362.359375 39.472656 361.554688 C 38.265625 360.746094 37.078125 359.910156 35.914062 359.046875 C 34.746094 358.179688 33.601562 357.289062 32.480469 356.367188 C 31.359375 355.445312 30.257812 354.5 29.183594 353.523438 C 28.109375 352.550781 27.058594 351.546875 26.03125 350.523438 C 25.003906 349.496094 24.003906 348.445312 23.027344 347.371094 C 22.054688 346.292969 21.105469 345.195312 20.183594 344.074219 C 19.265625 342.949219 18.371094 341.804688 17.507812 340.640625 C 16.640625 339.472656 15.804688 338.289062 15 337.082031 C 14.195312 335.875 13.417969 334.648438 12.671875 333.402344 C 11.925781 332.15625 11.210938 330.894531 10.523438 329.613281 C 9.839844 328.335938 9.1875 327.039062 8.566406 325.726562 C 7.945312 324.414062 7.359375 323.085938 6.804688 321.746094 C 6.246094 320.40625 5.726562 319.050781 5.238281 317.683594 C 4.746094 316.316406 4.292969 314.941406 3.871094 313.550781 C 3.449219 312.160156 3.0625 310.761719 2.710938 309.355469 C 2.355469 307.945312 2.039062 306.53125 1.757812 305.105469 C 1.472656 303.683594 1.226562 302.253906 1.011719 300.816406 C 0.796875 299.382812 0.621094 297.941406 0.480469 296.496094 C 0.335938 295.050781 0.230469 293.605469 0.160156 292.15625 C 0.0859375 290.707031 0.0507812 289.253906 0.0507812 287.804688 L 0.0507812 111.902344 C 0.0507812 110.449219 0.0859375 109 0.160156 107.550781 C 0.230469 106.101562 0.335938 104.652344 0.480469 103.207031 C 0.621094 101.765625 0.796875 100.324219 1.011719 98.886719 C 1.226562 97.453125 1.472656 96.023438 1.757812 94.597656 C 2.039062 93.175781 2.355469 91.757812 2.710938 90.351562 C 3.0625 88.941406 3.449219 87.542969 3.871094 86.15625 C 4.292969 84.765625 4.746094 83.386719 5.238281 82.019531 C 5.726562 80.652344 6.246094 79.300781 6.804688 77.960938 C 7.359375 76.617188 7.945312 75.292969 8.566406 73.980469 C 9.1875 72.667969 9.839844 71.371094 10.523438 70.089844 C 11.210938 68.808594 11.925781 67.546875 12.671875 66.300781 C 13.417969 65.058594 14.195312 63.832031 15 62.625 C 15.804688 61.417969 16.640625 60.230469 17.507812 59.066406 C 18.371094 57.898438 19.265625 56.753906 20.183594 55.632812 C 21.105469 54.511719 22.054688 53.410156 23.027344 52.335938 C 24.003906 51.261719 25.003906 50.210938 26.03125 49.183594 C 27.058594 48.15625 28.109375 47.15625 29.183594 46.179688 C 30.257812 45.207031 31.359375 44.257812 32.480469 43.335938 C 33.601562 42.417969 34.746094 41.523438 35.914062 40.660156 C 37.078125 39.792969 38.265625 38.957031 39.472656 38.152344 C 40.679688 37.347656 41.90625 36.570312 43.148438 35.824219 C 44.394531 35.078125 45.65625 34.363281 46.9375 33.675781 C 48.21875 32.992188 49.515625 32.339844 50.828125 31.71875 C 52.140625 31.097656 53.464844 30.511719 54.808594 29.957031 C 56.148438 29.398438 57.5 28.878906 58.867188 28.390625 C 60.234375 27.898438 61.613281 27.445312 63.003906 27.023438 C 64.390625 26.601562 65.789062 26.214844 67.199219 25.863281 C 68.605469 25.507812 70.023438 25.191406 71.445312 24.90625 C 72.871094 24.625 74.300781 24.375 75.734375 24.164062 C 77.171875 23.949219 78.613281 23.773438 80.054688 23.632812 C 81.5 23.488281 82.949219 23.382812 84.398438 23.3125 C 85.847656 23.238281 87.296875 23.203125 88.75 23.203125 Z M 88.75 23.203125 " fill-opacity="1" fill-rule="nonzero"/></g><path stroke-linecap="butt" transform="matrix(0.748512, 0, 0, 0.748512, 0.051588, 0.00000998016)" fill="none" stroke-linejoin="miter" d="M 157.999924 188.499002 L 214.998436 175.49925 " stroke="#ffffff" stroke-width="2" stroke-opacity="1" stroke-miterlimit="4"/><path stroke-linecap="butt" transform="matrix(0.748512, 0, 0, 0.748512, 0.051588, 0.00000998016)" fill="none" stroke-linejoin="miter" d="M 78.999423 188.499002 L 22.000911 175.49925 " stroke="#ffffff" stroke-width="2" stroke-opacity="1" stroke-miterlimit="4"/><path stroke-linecap="butt" transform="matrix(0.748512, 0, 0, 0.748512, 0.051588, 0.00000998016)" fill="none" stroke-linejoin="miter" d="M 161.00067 200.501985 L 219.00117 194.500493 " stroke="#ffffff" stroke-width="2" stroke-opacity="1" stroke-miterlimit="4"/><path stroke-linecap="butt" transform="matrix(0.748512, 0, 0, 0.748512, 0.051588, 0.00000998016)" fill="none" stroke-linejoin="miter" d="M 77.000666 200.501985 L 19.000166 194.500493 " stroke="#ffffff" stroke-width="2" stroke-opacity="1" stroke-miterlimit="4"/><path fill="#8f6564" d="M 57.6875 149.152344 C 57.6875 136.019531 68.332031 125.375 81.464844 125.375 L 96.785156 125.375 C 109.917969 125.375 120.5625 136.019531 120.5625 149.152344 C 120.5625 158.34375 113.109375 165.796875 103.917969 165.796875 L 74.332031 165.796875 C 65.136719 165.796875 57.6875 158.34375 57.6875 149.152344 Z M 57.6875 149.152344 " fill-opacity="1" fill-rule="nonzero"/><path fill="#1e1e1e" d="M 98.855469 142.222656 C 98.855469 146.976562 94.667969 145.296875 89.5 145.296875 C 84.332031 145.296875 80.140625 146.976562 80.140625 142.222656 C 80.140625 137.464844 84.332031 133.609375 89.5 133.609375 C 94.667969 133.609375 98.855469 137.464844 98.855469 142.222656 Z M 98.855469 142.222656 " fill-opacity="1" fill-rule="nonzero"/><path fill="#1e1e1e" d="M 93.617188 155.316406 C 93.617188 155.8125 93.519531 156.289062 93.332031 156.75 C 93.140625 157.207031 92.871094 157.613281 92.519531 157.960938 C 92.167969 158.3125 91.765625 158.582031 91.304688 158.773438 C 90.847656 158.964844 90.371094 159.058594 89.871094 159.058594 C 89.375 159.058594 88.898438 158.964844 88.441406 158.773438 C 87.980469 158.582031 87.578125 158.3125 87.226562 157.960938 C 86.875 157.613281 86.605469 157.207031 86.414062 156.75 C 86.226562 156.289062 86.128906 155.8125 86.128906 155.316406 C 86.128906 154.820312 86.226562 154.34375 86.414062 153.882812 C 86.605469 153.425781 86.875 153.019531 87.226562 152.667969 C 87.578125 152.320312 87.980469 152.046875 88.441406 151.859375 C 88.898438 151.667969 89.375 151.574219 89.871094 151.574219 C 90.371094 151.574219 90.847656 151.667969 91.304688 151.859375 C 91.765625 152.046875 92.167969 152.320312 92.519531 152.667969 C 92.871094 153.019531 93.140625 153.425781 93.332031 153.882812 C 93.519531 154.34375 93.617188 154.820312 93.617188 155.316406 Z M 93.617188 155.316406 " fill-opacity="1" fill-rule="nonzero"/><path stroke-linecap="round" transform="matrix(0.748512, 0, 0, 0.748512, 0.051588, 0.00000998016)" fill="none" stroke-linejoin="miter" d="M 151.497439 148.998752 L 136.065778 158.261923 " stroke="#1e1e1e" stroke-width="3" stroke-opacity="1" stroke-miterlimit="4"/><path stroke-linecap="round" transform="matrix(0.748512, 0, 0, 0.748512, 0.051588, 0.00000998016)" fill="none" stroke-linejoin="miter" d="M 152.901266 163.00571 L 135.997935 158.501983 " stroke="#1e1e1e" stroke-width="3" stroke-opacity="1" stroke-miterlimit="4"/><path stroke-linecap="round" transform="matrix(0.748512, 0, 0, 0.748512, 0.051588, 0.00000998016)" fill="none" stroke-linejoin="miter" d="M 85.397535 149.499746 L 100.834414 158.762917 " stroke="#1e1e1e" stroke-width="3" stroke-opacity="1" stroke-miterlimit="4"/><path stroke-linecap="round" transform="matrix(0.748512, 0, 0, 0.748512, 0.051588, 0.00000998016)" fill="none" stroke-linejoin="miter" d="M 83.998926 163.506705 L 100.897039 158.997758 " stroke="#1e1e1e" stroke-width="3" stroke-opacity="1" stroke-miterlimit="4"/><g clip-path="url(#a6ac1e7451)"><g clip-path="url(#366ffdb3ae)"><path fill="url(#6c63cad7cb)" d="M 109.605469 2.214844 L 109.605469 50.1875 L 156.613281 50.1875 L 156.613281 2.214844 Z M 109.605469 2.214844 " fill-rule="nonzero"/></g></g><path fill="#674d49" d="M 111.578125 30.6875 C 111.679688 36.078125 111.019531 38.488281 114.851562 43.039062 L 107.089844 41.917969 C 109.707031 38.496094 109.824219 35.074219 111.578125 30.6875 Z M 111.578125 30.6875 " fill-opacity="1" fill-rule="nonzero"/><path fill="#674d49" d="M 113.730469 31.8125 C 113.828125 37.203125 113.164062 39.613281 117 44.164062 C 117 44.164062 105.496094 45.660156 109.238281 43.039062 C 112.980469 40.417969 112.523438 36.570312 113.730469 31.8125 Z M 113.730469 31.8125 " fill-opacity="1" fill-rule="nonzero"/><path fill="#53403d" d="M 114.25 21.28125 C 111.808594 28.425781 109.71875 31.257812 112.980469 39.222656 L 102.5 33.734375 C 107.859375 30.585938 109.664062 26.144531 114.25 21.28125 Z M 114.25 21.28125 " fill-opacity="1" fill-rule="nonzero"/><path fill="#53403d" d="M 116.761719 21.914062 C 114.324219 29.058594 112.230469 31.886719 115.492188 39.855469 C 115.492188 39.855469 98.445312 35.878906 105.011719 34.367188 C 111.578125 32.851562 112.773438 27.550781 116.761719 21.914062 Z M 116.761719 21.914062 " fill-opacity="1" fill-rule="nonzero"/><path fill="#53403d" d="M 126.640625 35.894531 C 124.8125 41.167969 123.441406 43.320312 124.832031 48.839844 L 119.148438 45.535156 C 122.414062 42.953125 123.714844 39.660156 126.640625 35.894531 Z M 126.640625 35.894531 " fill-opacity="1" fill-rule="nonzero"/><path fill="#53403d" d="M 128.042969 36.199219 C 126.214844 41.46875 124.84375 43.625 126.234375 49.140625 C 126.234375 49.140625 116.695312 47.316406 120.554688 45.835938 C 124.410156 44.355469 125.417969 40.480469 128.042969 36.199219 Z M 128.042969 36.199219 " fill-opacity="1" fill-rule="nonzero"/><path fill="#674d49" d="M 126.085938 36.507812 C 124.148438 41.539062 123.945312 44.03125 118.789062 46.992188 L 126.464844 48.59375 C 125.175781 44.480469 126.234375 41.226562 126.085938 36.507812 Z M 126.085938 36.507812 " fill-opacity="1" fill-rule="nonzero"/><path fill="#674d49" d="M 123.683594 36.828125 C 121.746094 41.859375 121.542969 44.347656 116.382812 47.3125 C 116.382812 47.3125 126.683594 52.65625 124.0625 48.914062 C 121.441406 45.171875 123.1875 41.710938 123.683594 36.828125 Z M 123.683594 36.828125 " fill-opacity="1" fill-rule="nonzero"/><path fill="#674d49" d="M 131.90625 37.78125 C 129.96875 42.8125 129.765625 45.304688 124.609375 48.269531 L 132.285156 49.867188 C 130.996094 45.757812 132.054688 42.503906 131.90625 37.78125 Z M 131.90625 37.78125 " fill-opacity="1" fill-rule="nonzero"/><path fill="#674d49" d="M 129.503906 38.101562 C 127.566406 43.132812 127.363281 45.625 122.203125 48.589844 C 122.203125 48.589844 132.503906 53.929688 129.882812 50.1875 C 127.261719 46.449219 129.007812 42.984375 129.503906 38.101562 Z M 129.503906 38.101562 " fill-opacity="1" fill-rule="nonzero"/><path fill="#53403d" d="M 119.445312 33.988281 C 120.015625 39.351562 115.238281 41.019531 119.453125 45.214844 L 111.550781 44.660156 C 113.863281 41.023438 118.082031 38.511719 119.445312 33.988281 Z M 119.445312 33.988281 " fill-opacity="1" fill-rule="nonzero"/><path fill="#53403d" d="M 117.355469 34.128906 C 117.921875 39.492188 117.472656 41.949219 121.691406 46.148438 C 121.691406 46.148438 110.359375 48.640625 113.859375 45.707031 C 117.359375 42.769531 116.570312 38.976562 117.355469 34.128906 Z M 117.355469 34.128906 " fill-opacity="1" fill-rule="nonzero"/><path fill="#674d49" d="M 120.996094 34.699219 C 118.773438 40.417969 118.675781 43.304688 112.019531 46.390625 L 122.351562 48.789062 C 120.34375 43.914062 121.523438 40.203125 120.996094 34.699219 Z M 120.996094 34.699219 " fill-opacity="1" fill-rule="nonzero"/><path fill="#674d49" d="M 117.820312 34.90625 C 115.597656 40.621094 115.5 43.507812 108.84375 46.59375 C 108.84375 46.59375 122.925781 53.53125 119.175781 48.996094 C 115.425781 44.457031 117.503906 40.550781 117.820312 34.90625 Z M 117.820312 34.90625 " fill-opacity="1" fill-rule="nonzero"/><path fill="#53403d" d="M 144.527344 35.929688 C 144.429688 41.320312 145.089844 43.730469 141.257812 48.277344 L 149.019531 47.15625 C 146.398438 43.734375 146.28125 40.3125 144.527344 35.929688 Z M 144.527344 35.929688 " fill-opacity="1" fill-rule="nonzero"/><path fill="#53403d" d="M 142.378906 37.050781 C 142.28125 42.441406 142.941406 44.851562 139.105469 49.402344 C 139.105469 49.402344 150.613281 50.898438 146.871094 48.277344 C 143.128906 45.660156 143.582031 41.808594 142.378906 37.050781 Z M 142.378906 37.050781 " fill-opacity="1" fill-rule="nonzero"/><path fill="#674d49" d="M 130.023438 41.746094 C 131.957031 46.777344 132.160156 49.269531 137.320312 52.234375 L 129.640625 53.832031 C 130.933594 49.722656 129.875 46.464844 130.023438 41.746094 Z M 130.023438 41.746094 " fill-opacity="1" fill-rule="nonzero"/><path fill="#674d49" d="M 132.425781 42.066406 C 134.363281 47.097656 134.5625 49.589844 139.722656 52.554688 C 139.722656 52.554688 129.425781 57.894531 132.042969 54.152344 C 134.664062 50.410156 132.921875 46.949219 132.425781 42.066406 Z M 132.425781 42.066406 " fill-opacity="1" fill-rule="nonzero"/><path fill="#674d49" d="M 134.820312 39.066406 C 134.25 44.429688 139.03125 46.097656 134.8125 50.292969 L 142.714844 49.738281 C 140.402344 46.101562 136.183594 43.589844 134.820312 39.066406 Z M 134.820312 39.066406 " fill-opacity="1" fill-rule="nonzero"/><path fill="#674d49" d="M 136.910156 39.207031 C 136.34375 44.570312 136.792969 47.027344 132.574219 51.226562 C 132.574219 51.226562 143.90625 53.71875 140.40625 50.785156 C 136.90625 47.847656 137.695312 44.054688 136.910156 39.207031 Z M 136.910156 39.207031 " fill-opacity="1" fill-rule="nonzero"/><path fill="#674d49" d="M 149.371094 38.078125 C 147.3125 43.355469 147.253906 46.03125 140.949219 48.824219 L 150.804688 51.15625 C 148.84375 46.613281 149.929688 43.183594 149.371094 38.078125 Z M 149.371094 38.078125 " fill-opacity="1" fill-rule="nonzero"/><path fill="#674d49" d="M 146.351562 38.234375 C 144.292969 43.511719 144.234375 46.1875 137.929688 48.980469 C 137.929688 48.980469 151.398438 55.558594 147.785156 51.3125 C 144.171875 47.066406 146.109375 43.46875 146.351562 38.234375 Z M 146.351562 38.234375 " fill-opacity="1" fill-rule="nonzero"/><path fill="#674d49" d="M 113.351562 21.882812 C 110.257812 29.773438 110.277344 33.8125 100.214844 37.757812 L 116.238281 41.714844 C 112.875 34.765625 114.480469 29.628906 113.351562 21.882812 Z M 113.351562 21.882812 " fill-opacity="1" fill-rule="nonzero"/><path fill="#674d49" d="M 108.480469 21.988281 C 105.386719 29.878906 105.402344 33.917969 95.339844 37.863281 C 95.339844 37.863281 117.394531 48.394531 111.367188 41.816406 C 105.339844 35.242188 108.316406 29.886719 108.480469 21.988281 Z M 108.480469 21.988281 " fill-opacity="1" fill-rule="nonzero"/></svg>