<svg xmlns="http://www.w3.org/2000/svg" xmlns:xlink="http://www.w3.org/1999/xlink" width="237" zoomAndPan="magnify" viewBox="0 0 177.75 353.999987" height="472" preserveAspectRatio="xMidYMid meet" version="1.0"><defs><clipPath id="ec48718708"><path d="M 0 0.25 L 177.5 0.25 L 177.5 353.75 L 0 353.75 Z M 0 0.25 " clip-rule="nonzero"/></clipPath></defs><g clip-path="url(#ec48718708)"><path fill="#674d49" d="M 88.75 0.25 C 90.203125 0.25 91.652344 0.285156 93.105469 0.355469 C 94.554688 0.425781 96.003906 0.535156 97.449219 0.675781 C 98.894531 0.816406 100.335938 0.996094 101.773438 1.210938 C 103.210938 1.421875 104.640625 1.671875 106.066406 1.953125 C 107.488281 2.238281 108.90625 2.554688 110.316406 2.910156 C 111.722656 3.261719 113.125 3.648438 114.511719 4.070312 C 115.902344 4.492188 117.28125 4.945312 118.648438 5.4375 C 120.015625 5.925781 121.371094 6.449219 122.714844 7.003906 C 124.054688 7.558594 125.382812 8.148438 126.695312 8.769531 C 128.007812 9.390625 129.304688 10.042969 130.585938 10.726562 C 131.867188 11.414062 133.132812 12.128906 134.375 12.875 C 135.621094 13.621094 136.847656 14.398438 138.058594 15.207031 C 139.265625 16.011719 140.453125 16.847656 141.617188 17.714844 C 142.785156 18.578125 143.929688 19.472656 145.050781 20.394531 C 146.175781 21.316406 147.273438 22.265625 148.351562 23.238281 C 149.425781 24.214844 150.480469 25.214844 151.507812 26.242188 C 152.53125 27.269531 153.535156 28.320312 154.507812 29.398438 C 155.484375 30.472656 156.433594 31.574219 157.355469 32.695312 C 158.277344 33.820312 159.167969 34.964844 160.035156 36.128906 C 160.898438 37.296875 161.734375 38.484375 162.542969 39.691406 C 163.351562 40.898438 164.128906 42.125 164.875 43.371094 C 165.621094 44.617188 166.335938 45.882812 167.019531 47.164062 C 167.707031 48.441406 168.359375 49.738281 168.980469 51.054688 C 169.601562 52.367188 170.1875 53.695312 170.746094 55.035156 C 171.300781 56.378906 171.824219 57.730469 172.3125 59.101562 C 172.800781 60.46875 173.257812 61.847656 173.679688 63.234375 C 174.101562 64.625 174.488281 66.023438 174.839844 67.433594 C 175.195312 68.84375 175.511719 70.261719 175.796875 71.683594 C 176.078125 73.109375 176.328125 74.539062 176.539062 75.976562 C 176.753906 77.414062 176.929688 78.855469 177.074219 80.300781 C 177.214844 81.746094 177.320312 83.191406 177.394531 84.644531 C 177.464844 86.09375 177.5 87.546875 177.5 89 L 177.5 265 C 177.5 266.453125 177.464844 267.90625 177.394531 269.355469 C 177.320312 270.808594 177.214844 272.253906 177.074219 273.699219 C 176.929688 275.144531 176.753906 276.585938 176.539062 278.023438 C 176.328125 279.460938 176.078125 280.890625 175.796875 282.316406 C 175.511719 283.738281 175.195312 285.15625 174.839844 286.566406 C 174.488281 287.976562 174.101562 289.375 173.679688 290.765625 C 173.257812 292.152344 172.800781 293.53125 172.3125 294.898438 C 171.824219 296.269531 171.300781 297.621094 170.746094 298.964844 C 170.1875 300.304688 169.601562 301.632812 168.980469 302.945312 C 168.359375 304.261719 167.707031 305.558594 167.019531 306.835938 C 166.335938 308.117188 165.621094 309.382812 164.875 310.628906 C 164.128906 311.875 163.351562 313.101562 162.542969 314.308594 C 161.734375 315.515625 160.898438 316.703125 160.035156 317.871094 C 159.167969 319.035156 158.277344 320.179688 157.355469 321.304688 C 156.433594 322.425781 155.484375 323.527344 154.507812 324.601562 C 153.535156 325.679688 152.53125 326.730469 151.507812 327.757812 C 150.480469 328.785156 149.425781 329.785156 148.351562 330.761719 C 147.273438 331.734375 146.175781 332.683594 145.050781 333.605469 C 143.929688 334.527344 142.785156 335.421875 141.617188 336.285156 C 140.453125 337.152344 139.265625 337.988281 138.058594 338.792969 C 136.847656 339.601562 135.621094 340.378906 134.375 341.125 C 133.132812 341.871094 131.867188 342.585938 130.585938 343.273438 C 129.304688 343.957031 128.007812 344.609375 126.695312 345.230469 C 125.382812 345.851562 124.054688 346.441406 122.714844 346.996094 C 121.371094 347.550781 120.015625 348.074219 118.648438 348.5625 C 117.28125 349.050781 115.902344 349.507812 114.511719 349.929688 C 113.125 350.351562 111.722656 350.738281 110.316406 351.089844 C 108.90625 351.445312 107.488281 351.761719 106.066406 352.046875 C 104.640625 352.328125 103.210938 352.578125 101.773438 352.789062 C 100.335938 353.003906 98.894531 353.183594 97.449219 353.324219 C 96.003906 353.464844 94.554688 353.574219 93.105469 353.644531 C 91.652344 353.714844 90.203125 353.75 88.75 353.75 C 87.296875 353.75 85.847656 353.714844 84.394531 353.644531 C 82.945312 353.574219 81.496094 353.464844 80.050781 353.324219 C 78.605469 353.183594 77.164062 353.003906 75.726562 352.789062 C 74.292969 352.578125 72.859375 352.328125 71.4375 352.046875 C 70.011719 351.761719 68.59375 351.445312 67.1875 351.089844 C 65.777344 350.738281 64.378906 350.351562 62.988281 349.929688 C 61.597656 349.507812 60.21875 349.050781 58.851562 348.5625 C 57.484375 348.074219 56.128906 347.550781 54.785156 346.996094 C 53.445312 346.441406 52.117188 345.851562 50.804688 345.230469 C 49.492188 344.609375 48.195312 343.957031 46.914062 343.273438 C 45.632812 342.585938 44.371094 341.871094 43.125 341.125 C 41.878906 340.378906 40.652344 339.601562 39.441406 338.792969 C 38.234375 337.988281 37.046875 337.152344 35.882812 336.285156 C 34.714844 335.421875 33.570312 334.527344 32.449219 333.605469 C 31.324219 332.683594 30.226562 331.734375 29.148438 330.761719 C 28.074219 329.785156 27.019531 328.785156 25.996094 327.757812 C 24.96875 326.730469 23.964844 325.679688 22.992188 324.601562 C 22.015625 323.527344 21.066406 322.425781 20.144531 321.304688 C 19.222656 320.179688 18.332031 319.035156 17.464844 317.871094 C 16.601562 316.703125 15.765625 315.515625 14.957031 314.308594 C 14.148438 313.101562 13.375 311.875 12.625 310.628906 C 11.878906 309.382812 11.164062 308.117188 10.480469 306.835938 C 9.792969 305.558594 9.140625 304.261719 8.519531 302.945312 C 7.898438 301.632812 7.3125 300.304688 6.753906 298.964844 C 6.199219 297.621094 5.675781 296.269531 5.1875 294.898438 C 4.699219 293.53125 4.242188 292.152344 3.820312 290.765625 C 3.398438 289.375 3.011719 287.976562 2.660156 286.566406 C 2.308594 285.15625 1.988281 283.738281 1.707031 282.316406 C 1.421875 280.890625 1.171875 279.460938 0.960938 278.023438 C 0.746094 276.585938 0.570312 275.144531 0.425781 273.699219 C 0.285156 272.253906 0.179688 270.808594 0.105469 269.355469 C 0.0351562 267.90625 0 266.453125 0 265 L 0 89 C 0 87.546875 0.0351562 86.09375 0.105469 84.644531 C 0.179688 83.191406 0.285156 81.746094 0.425781 80.300781 C 0.570312 78.855469 0.746094 77.414062 0.960938 75.976562 C 1.171875 74.539062 1.421875 73.109375 1.707031 71.683594 C 1.988281 70.261719 2.308594 68.84375 2.660156 67.433594 C 3.011719 66.023438 3.398438 64.625 3.820312 63.234375 C 4.242188 61.847656 4.699219 60.46875 5.1875 59.101562 C 5.675781 57.730469 6.199219 56.378906 6.753906 55.035156 C 7.3125 53.695312 7.898438 52.367188 8.519531 51.054688 C 9.140625 49.738281 9.792969 48.441406 10.480469 47.164062 C 11.164062 45.882812 11.878906 44.617188 12.625 43.371094 C 13.375 42.125 14.148438 40.898438 14.957031 39.691406 C 15.765625 38.484375 16.601562 37.296875 17.464844 36.128906 C 18.332031 34.964844 19.222656 33.820312 20.144531 32.695312 C 21.066406 31.574219 22.015625 30.472656 22.992188 29.398438 C 23.964844 28.320312 24.96875 27.269531 25.996094 26.242188 C 27.019531 25.214844 28.074219 24.214844 29.148438 23.238281 C 30.226562 22.265625 31.324219 21.316406 32.449219 20.394531 C 33.570312 19.472656 34.714844 18.578125 35.882812 17.714844 C 37.046875 16.847656 38.234375 16.011719 39.441406 15.207031 C 40.652344 14.398438 41.878906 13.621094 43.125 12.875 C 44.371094 12.128906 45.632812 11.414062 46.914062 10.726562 C 48.195312 10.042969 49.492188 9.390625 50.804688 8.769531 C 52.117188 8.148438 53.445312 7.558594 54.785156 7.003906 C 56.128906 6.449219 57.484375 5.925781 58.851562 5.4375 C 60.21875 4.945312 61.597656 4.492188 62.988281 4.070312 C 64.378906 3.648438 65.777344 3.261719 67.1875 2.910156 C 68.59375 2.554688 70.011719 2.238281 71.4375 1.953125 C 72.859375 1.671875 74.292969 1.421875 75.726562 1.210938 C 77.164062 0.996094 78.605469 0.816406 80.050781 0.675781 C 81.496094 0.535156 82.945312 0.425781 84.394531 0.355469 C 85.847656 0.285156 87.296875 0.25 88.75 0.25 Z M 88.75 0.25 " fill-opacity="1" fill-rule="nonzero"/></g><path fill="#1e1e1e" d="M 78.640625 84.128906 C 78.640625 84.621094 78.589844 85.109375 78.496094 85.589844 C 78.398438 86.074219 78.257812 86.542969 78.070312 86.996094 C 77.882812 87.449219 77.648438 87.882812 77.378906 88.292969 C 77.105469 88.699219 76.792969 89.078125 76.445312 89.425781 C 76.097656 89.773438 75.71875 90.085938 75.3125 90.359375 C 74.902344 90.632812 74.46875 90.863281 74.015625 91.050781 C 73.5625 91.238281 73.09375 91.378906 72.609375 91.476562 C 72.128906 91.570312 71.640625 91.621094 71.148438 91.621094 C 70.65625 91.621094 70.171875 91.570312 69.6875 91.476562 C 69.207031 91.378906 68.738281 91.238281 68.285156 91.050781 C 67.828125 90.863281 67.398438 90.632812 66.988281 90.359375 C 66.582031 90.085938 66.203125 89.773438 65.855469 89.425781 C 65.507812 89.078125 65.195312 88.699219 64.921875 88.292969 C 64.648438 87.882812 64.417969 87.449219 64.230469 86.996094 C 64.042969 86.542969 63.898438 86.074219 63.804688 85.589844 C 63.707031 85.109375 63.660156 84.621094 63.660156 84.128906 C 63.660156 83.640625 63.707031 83.152344 63.804688 82.667969 C 63.898438 82.1875 64.042969 81.71875 64.230469 81.265625 C 64.417969 80.808594 64.648438 80.378906 64.921875 79.96875 C 65.195312 79.5625 65.507812 79.183594 65.855469 78.835938 C 66.203125 78.488281 66.582031 78.175781 66.988281 77.902344 C 67.398438 77.628906 67.828125 77.398438 68.285156 77.210938 C 68.738281 77.023438 69.207031 76.882812 69.6875 76.785156 C 70.171875 76.6875 70.65625 76.640625 71.148438 76.640625 C 71.640625 76.640625 72.128906 76.6875 72.609375 76.785156 C 73.09375 76.882812 73.5625 77.023438 74.015625 77.210938 C 74.46875 77.398438 74.902344 77.628906 75.3125 77.902344 C 75.71875 78.175781 76.097656 78.488281 76.445312 78.835938 C 76.792969 79.183594 77.105469 79.5625 77.378906 79.96875 C 77.648438 80.378906 77.882812 80.808594 78.070312 81.265625 C 78.257812 81.71875 78.398438 82.1875 78.496094 82.667969 C 78.589844 83.152344 78.640625 83.640625 78.640625 84.128906 Z M 78.640625 84.128906 " fill-opacity="1" fill-rule="nonzero"/><path fill="#1e1e1e" d="M 115.335938 84.128906 C 115.335938 84.621094 115.289062 85.109375 115.195312 85.589844 C 115.097656 86.074219 114.957031 86.542969 114.769531 86.996094 C 114.578125 87.449219 114.347656 87.882812 114.074219 88.292969 C 113.800781 88.699219 113.492188 89.078125 113.144531 89.425781 C 112.796875 89.773438 112.417969 90.085938 112.007812 90.359375 C 111.601562 90.632812 111.167969 90.863281 110.714844 91.050781 C 110.261719 91.238281 109.792969 91.378906 109.308594 91.476562 C 108.828125 91.570312 108.339844 91.621094 107.847656 91.621094 C 107.355469 91.621094 106.871094 91.570312 106.386719 91.476562 C 105.90625 91.378906 105.4375 91.238281 104.980469 91.050781 C 104.527344 90.863281 104.097656 90.632812 103.6875 90.359375 C 103.277344 90.085938 102.898438 89.773438 102.550781 89.425781 C 102.203125 89.078125 101.894531 88.699219 101.621094 88.292969 C 101.347656 87.882812 101.117188 87.449219 100.929688 86.996094 C 100.742188 86.542969 100.597656 86.074219 100.503906 85.589844 C 100.40625 85.109375 100.359375 84.621094 100.359375 84.128906 C 100.359375 83.640625 100.40625 83.152344 100.503906 82.667969 C 100.597656 82.1875 100.742188 81.71875 100.929688 81.265625 C 101.117188 80.808594 101.347656 80.378906 101.621094 79.96875 C 101.894531 79.5625 102.203125 79.183594 102.550781 78.835938 C 102.898438 78.488281 103.277344 78.175781 103.6875 77.902344 C 104.097656 77.628906 104.527344 77.398438 104.980469 77.210938 C 105.4375 77.023438 105.90625 76.882812 106.386719 76.785156 C 106.871094 76.6875 107.355469 76.640625 107.847656 76.640625 C 108.339844 76.640625 108.828125 76.6875 109.308594 76.785156 C 109.792969 76.882812 110.261719 77.023438 110.714844 77.210938 C 111.167969 77.398438 111.601562 77.628906 112.007812 77.902344 C 112.417969 78.175781 112.796875 78.488281 113.144531 78.835938 C 113.492188 79.183594 113.800781 79.5625 114.074219 79.96875 C 114.347656 80.378906 114.578125 80.808594 114.769531 81.265625 C 114.957031 81.71875 115.097656 82.1875 115.195312 82.667969 C 115.289062 83.152344 115.335938 83.640625 115.335938 84.128906 Z M 115.335938 84.128906 " fill-opacity="1" fill-rule="nonzero"/><path stroke-linecap="butt" transform="matrix(0.748947, 0, 0, 0.748947, 0, 0.248589)" fill="none" stroke-linejoin="miter" d="M 157.001765 141.998198 L 213.998485 129.000776 " stroke="#ffffff" stroke-width="2" stroke-opacity="1" stroke-miterlimit="4"/><path stroke-linecap="butt" transform="matrix(0.748947, 0, 0, 0.748947, 0, 0.248589)" fill="none" stroke-linejoin="miter" d="M 78.000179 141.998198 L 20.998243 129.000776 " stroke="#ffffff" stroke-width="2" stroke-opacity="1" stroke-miterlimit="4"/><path stroke-linecap="butt" transform="matrix(0.748947, 0, 0, 0.748947, 0, 0.248589)" fill="none" stroke-linejoin="miter" d="M 160.000769 153.999429 L 217.998896 148.001422 " stroke="#ffffff" stroke-width="2" stroke-opacity="1" stroke-miterlimit="4"/><path stroke-linecap="butt" transform="matrix(0.748947, 0, 0, 0.748947, 0, 0.248589)" fill="none" stroke-linejoin="miter" d="M 76.002582 153.999429 L 17.999239 148.001422 " stroke="#ffffff" stroke-width="2" stroke-opacity="1" stroke-miterlimit="4"/><path fill="#8f6564" d="M 56.921875 114.660156 C 56.921875 101.523438 67.570312 90.871094 80.710938 90.871094 L 96.042969 90.871094 C 109.179688 90.871094 119.832031 101.523438 119.832031 114.660156 C 119.832031 123.859375 112.375 131.3125 103.179688 131.3125 L 73.574219 131.3125 C 64.375 131.3125 56.921875 123.859375 56.921875 114.660156 Z M 56.921875 114.660156 " fill-opacity="1" fill-rule="nonzero"/><path fill="#1e1e1e" d="M 98.113281 107.726562 C 98.113281 112.484375 93.921875 110.804688 88.75 110.804688 C 83.578125 110.804688 79.386719 112.484375 79.386719 107.726562 C 79.386719 102.96875 83.578125 99.109375 88.75 99.109375 C 93.921875 99.109375 98.113281 102.96875 98.113281 107.726562 Z M 98.113281 107.726562 " fill-opacity="1" fill-rule="nonzero"/><path fill="#ffffff" d="M 81.636719 123.074219 L 88.375 123.074219 L 88.375 130.566406 L 81.636719 130.566406 Z M 81.636719 123.074219 " fill-opacity="1" fill-rule="nonzero"/><path fill="#ffffff" d="M 89.125 123.074219 L 95.863281 123.074219 L 95.863281 130.566406 L 89.125 130.566406 Z M 89.125 123.074219 " fill-opacity="1" fill-rule="nonzero"/><path stroke-linecap="round" transform="matrix(0.748947, 0, 0, 0.748947, 0, 0.248589)" fill="none" stroke-linejoin="miter" d="M 89.000004 156.602043 C 111.84459 165.536467 124.398681 165.651211 146.262723 156.002242 " stroke="#1e1e1e" stroke-width="3" stroke-opacity="1" stroke-miterlimit="4"/></svg>