<svg xmlns="http://www.w3.org/2000/svg" xmlns:xlink="http://www.w3.org/1999/xlink" width="273" zoomAndPan="magnify" viewBox="0 0 204.75 425.249996" height="567" preserveAspectRatio="xMidYMid meet" version="1.0"><defs><clipPath id="2ac8596dba"><path d="M 12 60 L 191 60 L 191 424.5 L 12 424.5 Z M 12 60 " clip-rule="nonzero"/></clipPath><clipPath id="ece6a50b5e"><path d="M 0.0546875 91 L 204 91 L 204 132 L 0.0546875 132 Z M 0.0546875 91 " clip-rule="nonzero"/></clipPath></defs><g clip-path="url(#2ac8596dba)"><path fill="#674d49" d="M 101.5 60.644531 C 102.953125 60.644531 104.40625 60.679688 105.855469 60.75 C 107.304688 60.820312 108.753906 60.929688 110.199219 61.070312 C 111.640625 61.210938 113.082031 61.390625 114.519531 61.601562 C 115.957031 61.816406 117.386719 62.066406 118.808594 62.347656 C 120.234375 62.632812 121.648438 62.949219 123.058594 63.300781 C 124.464844 63.65625 125.867188 64.042969 127.253906 64.464844 C 128.644531 64.882812 130.023438 65.339844 131.390625 65.828125 C 132.757812 66.316406 134.109375 66.839844 135.453125 67.394531 C 136.792969 67.953125 138.121094 68.539062 139.433594 69.160156 C 140.746094 69.78125 142.042969 70.433594 143.324219 71.117188 C 144.605469 71.804688 145.867188 72.519531 147.113281 73.265625 C 148.355469 74.011719 149.582031 74.789062 150.789062 75.59375 C 152 76.402344 153.183594 77.238281 154.351562 78.101562 C 155.515625 78.96875 156.660156 79.859375 157.785156 80.78125 C 158.90625 81.703125 160.003906 82.652344 161.082031 83.625 C 162.15625 84.601562 163.207031 85.601562 164.234375 86.628906 C 165.261719 87.65625 166.261719 88.707031 167.238281 89.78125 C 168.210938 90.859375 169.160156 91.957031 170.082031 93.078125 C 171.003906 94.203125 171.894531 95.347656 172.761719 96.511719 C 173.625 97.679688 174.460938 98.863281 175.269531 100.070312 C 176.074219 101.28125 176.851562 102.503906 177.597656 103.75 C 178.34375 104.996094 179.058594 106.257812 179.746094 107.539062 C 180.429688 108.820312 181.082031 110.117188 181.703125 111.429688 C 182.324219 112.742188 182.910156 114.070312 183.464844 115.410156 C 184.023438 116.75 184.542969 118.105469 185.035156 119.472656 C 185.523438 120.839844 185.976562 122.21875 186.398438 123.609375 C 186.820312 124.996094 187.207031 126.394531 187.5625 127.804688 C 187.914062 129.214844 188.230469 130.628906 188.515625 132.054688 C 188.796875 133.476562 189.046875 134.90625 189.261719 136.34375 C 189.472656 137.78125 189.652344 139.21875 189.792969 140.664062 C 189.933594 142.109375 190.042969 143.558594 190.113281 145.007812 C 190.183594 146.457031 190.21875 147.910156 190.21875 149.363281 L 190.21875 335.78125 C 190.21875 337.234375 190.183594 338.6875 190.113281 340.136719 C 190.042969 341.585938 189.933594 343.035156 189.792969 344.480469 C 189.652344 345.921875 189.472656 347.363281 189.261719 348.800781 C 189.046875 350.238281 188.796875 351.667969 188.515625 353.089844 C 188.230469 354.515625 187.914062 355.929688 187.5625 357.339844 C 187.207031 358.746094 186.820312 360.148438 186.398438 361.535156 C 185.976562 362.925781 185.523438 364.304688 185.035156 365.671875 C 184.542969 367.039062 184.023438 368.390625 183.464844 369.734375 C 182.910156 371.074219 182.324219 372.402344 181.703125 373.714844 C 181.082031 375.027344 180.429688 376.324219 179.746094 377.605469 C 179.058594 378.886719 178.34375 380.148438 177.597656 381.394531 C 176.851562 382.636719 176.074219 383.863281 175.269531 385.070312 C 174.460938 386.28125 173.625 387.464844 172.761719 388.632812 C 171.894531 389.796875 171.003906 390.941406 170.082031 392.066406 C 169.160156 393.1875 168.210938 394.285156 167.238281 395.363281 C 166.261719 396.4375 165.261719 397.488281 164.234375 398.515625 C 163.207031 399.542969 162.15625 400.542969 161.082031 401.519531 C 160.003906 402.492188 158.90625 403.441406 157.785156 404.363281 C 156.660156 405.285156 155.515625 406.175781 154.351562 407.042969 C 153.183594 407.90625 152 408.742188 150.789062 409.550781 C 149.582031 410.355469 148.355469 411.132812 147.113281 411.878906 C 145.867188 412.625 144.605469 413.339844 143.324219 414.027344 C 142.042969 414.710938 140.746094 415.363281 139.433594 415.984375 C 138.121094 416.605469 136.792969 417.191406 135.453125 417.746094 C 134.109375 418.304688 132.757812 418.824219 131.390625 419.316406 C 130.023438 419.804688 128.644531 420.257812 127.253906 420.679688 C 125.867188 421.101562 124.464844 421.488281 123.058594 421.84375 C 121.648438 422.195312 120.234375 422.511719 118.808594 422.796875 C 117.386719 423.078125 115.957031 423.328125 114.519531 423.542969 C 113.082031 423.753906 111.640625 423.933594 110.199219 424.074219 C 108.753906 424.214844 107.304688 424.324219 105.855469 424.394531 C 104.40625 424.464844 102.953125 424.5 101.5 424.5 C 100.050781 424.5 98.597656 424.464844 97.148438 424.394531 C 95.699219 424.324219 94.25 424.214844 92.804688 424.074219 C 91.359375 423.933594 89.921875 423.753906 88.484375 423.542969 C 87.046875 423.328125 85.617188 423.078125 84.195312 422.796875 C 82.769531 422.511719 81.351562 422.195312 79.945312 421.84375 C 78.535156 421.488281 77.136719 421.101562 75.746094 420.679688 C 74.359375 420.257812 72.980469 419.804688 71.613281 419.316406 C 70.246094 418.824219 68.890625 418.304688 67.550781 417.746094 C 66.210938 417.191406 64.882812 416.605469 63.570312 415.984375 C 62.257812 415.363281 60.960938 414.710938 59.679688 414.027344 C 58.398438 413.339844 57.136719 412.625 55.890625 411.878906 C 54.644531 411.132812 53.417969 410.355469 52.210938 409.550781 C 51.003906 408.742188 49.816406 407.90625 48.652344 407.042969 C 47.484375 406.175781 46.339844 405.285156 45.21875 404.363281 C 44.097656 403.441406 42.996094 402.492188 41.921875 401.519531 C 40.847656 400.542969 39.792969 399.542969 38.769531 398.515625 C 37.742188 397.488281 36.742188 396.4375 35.765625 395.363281 C 34.789062 394.285156 33.84375 393.1875 32.921875 392.066406 C 32 390.941406 31.105469 389.796875 30.242188 388.632812 C 29.378906 387.464844 28.542969 386.28125 27.734375 385.070312 C 26.929688 383.863281 26.152344 382.636719 25.40625 381.394531 C 24.660156 380.148438 23.941406 378.886719 23.257812 377.605469 C 22.574219 376.324219 21.921875 375.027344 21.300781 373.714844 C 20.679688 372.402344 20.09375 371.074219 19.535156 369.734375 C 18.980469 368.390625 18.457031 367.039062 17.96875 365.671875 C 17.480469 364.304688 17.023438 362.925781 16.601562 361.535156 C 16.183594 360.148438 15.792969 358.746094 15.441406 357.339844 C 15.089844 355.929688 14.769531 354.515625 14.488281 353.089844 C 14.203125 351.667969 13.957031 350.238281 13.742188 348.800781 C 13.53125 347.363281 13.351562 345.921875 13.210938 344.480469 C 13.066406 343.035156 12.960938 341.585938 12.890625 340.136719 C 12.820312 338.6875 12.78125 337.234375 12.78125 335.78125 L 12.78125 149.363281 C 12.78125 147.910156 12.820312 146.457031 12.890625 145.007812 C 12.960938 143.558594 13.066406 142.109375 13.210938 140.664062 C 13.351562 139.21875 13.53125 137.78125 13.742188 136.34375 C 13.957031 134.90625 14.203125 133.476562 14.488281 132.054688 C 14.769531 130.628906 15.089844 129.214844 15.441406 127.804688 C 15.792969 126.394531 16.183594 124.996094 16.601562 123.609375 C 17.023438 122.21875 17.480469 120.839844 17.96875 119.472656 C 18.457031 118.105469 18.980469 116.75 19.535156 115.410156 C 20.09375 114.070312 20.679688 112.742188 21.300781 111.429688 C 21.921875 110.117188 22.574219 108.820312 23.257812 107.539062 C 23.941406 106.257812 24.660156 104.996094 25.40625 103.75 C 26.152344 102.503906 26.929688 101.28125 27.734375 100.070312 C 28.542969 98.863281 29.378906 97.679688 30.242188 96.511719 C 31.105469 95.347656 32 94.203125 32.921875 93.078125 C 33.84375 91.957031 34.789062 90.859375 35.765625 89.78125 C 36.742188 88.707031 37.742188 87.65625 38.769531 86.628906 C 39.792969 85.601562 40.847656 84.601562 41.921875 83.625 C 42.996094 82.652344 44.097656 81.703125 45.21875 80.78125 C 46.339844 79.859375 47.484375 78.96875 48.652344 78.101562 C 49.816406 77.238281 51.003906 76.402344 52.210938 75.59375 C 53.417969 74.789062 54.644531 74.011719 55.890625 73.265625 C 57.136719 72.519531 58.398438 71.804688 59.679688 71.117188 C 60.960938 70.433594 62.257812 69.78125 63.570312 69.160156 C 64.882812 68.539062 66.210938 67.953125 67.550781 67.394531 C 68.890625 66.839844 70.246094 66.316406 71.613281 65.828125 C 72.980469 65.339844 74.359375 64.882812 75.746094 64.464844 C 77.136719 64.042969 78.535156 63.65625 79.945312 63.300781 C 81.351562 62.949219 82.769531 62.632812 84.195312 62.347656 C 85.617188 62.066406 87.046875 61.816406 88.484375 61.601562 C 89.921875 61.390625 91.359375 61.210938 92.804688 61.070312 C 94.25 60.929688 95.699219 60.820312 97.148438 60.75 C 98.597656 60.679688 100.050781 60.644531 101.5 60.644531 Z M 101.5 60.644531 " fill-opacity="1" fill-rule="nonzero"/></g><path fill="#1e1e1e" d="M 91.394531 146.980469 C 91.394531 147.488281 91.347656 147.988281 91.25 148.484375 C 91.15625 148.984375 91.011719 149.464844 90.824219 149.933594 C 90.636719 150.398438 90.40625 150.84375 90.132812 151.265625 C 89.859375 151.6875 89.550781 152.074219 89.203125 152.433594 C 88.855469 152.792969 88.476562 153.109375 88.066406 153.390625 C 87.660156 153.671875 87.226562 153.910156 86.773438 154.105469 C 86.320312 154.296875 85.851562 154.445312 85.367188 154.542969 C 84.886719 154.640625 84.398438 154.691406 83.90625 154.691406 C 83.414062 154.691406 82.929688 154.640625 82.445312 154.542969 C 81.964844 154.445312 81.496094 154.296875 81.042969 154.105469 C 80.589844 153.910156 80.15625 153.671875 79.75 153.390625 C 79.339844 153.109375 78.960938 152.792969 78.613281 152.433594 C 78.265625 152.074219 77.957031 151.6875 77.683594 151.265625 C 77.410156 150.84375 77.179688 150.398438 76.992188 149.933594 C 76.800781 149.464844 76.660156 148.984375 76.566406 148.484375 C 76.46875 147.988281 76.421875 147.488281 76.421875 146.980469 C 76.421875 146.476562 76.46875 145.976562 76.566406 145.476562 C 76.660156 144.980469 76.800781 144.5 76.992188 144.03125 C 77.179688 143.566406 77.410156 143.121094 77.683594 142.699219 C 77.957031 142.277344 78.265625 141.890625 78.613281 141.53125 C 78.960938 141.171875 79.339844 140.855469 79.75 140.574219 C 80.15625 140.292969 80.589844 140.054688 81.042969 139.859375 C 81.496094 139.667969 81.964844 139.519531 82.445312 139.421875 C 82.929688 139.324219 83.414062 139.273438 83.90625 139.273438 C 84.398438 139.273438 84.886719 139.324219 85.367188 139.421875 C 85.851562 139.519531 86.320312 139.667969 86.773438 139.859375 C 87.226562 140.054688 87.660156 140.292969 88.066406 140.574219 C 88.476562 140.855469 88.855469 141.171875 89.203125 141.53125 C 89.550781 141.890625 89.859375 142.277344 90.132812 142.699219 C 90.40625 143.121094 90.636719 143.566406 90.824219 144.03125 C 91.011719 144.5 91.15625 144.980469 91.25 145.476562 C 91.347656 145.976562 91.394531 146.476562 91.394531 146.980469 Z M 91.394531 146.980469 " fill-opacity="1" fill-rule="nonzero"/><path fill="#1e1e1e" d="M 128.078125 146.980469 C 128.078125 147.488281 128.03125 147.988281 127.9375 148.484375 C 127.839844 148.984375 127.699219 149.464844 127.507812 149.933594 C 127.320312 150.398438 127.089844 150.84375 126.816406 151.265625 C 126.542969 151.6875 126.234375 152.074219 125.886719 152.433594 C 125.539062 152.792969 125.160156 153.109375 124.753906 153.390625 C 124.34375 153.671875 123.910156 153.910156 123.457031 154.105469 C 123.003906 154.296875 122.535156 154.445312 122.054688 154.542969 C 121.570312 154.640625 121.085938 154.691406 120.59375 154.691406 C 120.101562 154.691406 119.613281 154.640625 119.132812 154.542969 C 118.648438 154.445312 118.183594 154.296875 117.726562 154.105469 C 117.273438 153.910156 116.84375 153.671875 116.433594 153.390625 C 116.023438 153.109375 115.648438 152.792969 115.300781 152.433594 C 114.953125 152.074219 114.640625 151.6875 114.367188 151.265625 C 114.09375 150.84375 113.863281 150.398438 113.675781 149.933594 C 113.488281 149.464844 113.347656 148.984375 113.25 148.484375 C 113.152344 147.988281 113.105469 147.488281 113.105469 146.980469 C 113.105469 146.476562 113.152344 145.976562 113.25 145.476562 C 113.347656 144.980469 113.488281 144.5 113.675781 144.03125 C 113.863281 143.566406 114.09375 143.121094 114.367188 142.699219 C 114.640625 142.277344 114.953125 141.890625 115.300781 141.53125 C 115.648438 141.171875 116.023438 140.855469 116.433594 140.574219 C 116.84375 140.292969 117.273438 140.054688 117.726562 139.859375 C 118.183594 139.667969 118.648438 139.519531 119.132812 139.421875 C 119.613281 139.324219 120.101562 139.273438 120.59375 139.273438 C 121.085938 139.273438 121.570312 139.324219 122.054688 139.421875 C 122.535156 139.519531 123.003906 139.667969 123.457031 139.859375 C 123.910156 140.054688 124.34375 140.292969 124.753906 140.574219 C 125.160156 140.855469 125.539062 141.171875 125.886719 141.53125 C 126.234375 141.890625 126.542969 142.277344 126.816406 142.699219 C 127.089844 143.121094 127.320312 143.566406 127.507812 144.03125 C 127.699219 144.5 127.839844 144.980469 127.9375 145.476562 C 128.03125 145.976562 128.078125 146.476562 128.078125 146.980469 Z M 128.078125 146.980469 " fill-opacity="1" fill-rule="nonzero"/><path stroke-linecap="butt" transform="matrix(0.74868, 0, 0, 0.74868, 0.0554588, 0.00000998239)" fill="none" stroke-linejoin="miter" d="M 173.998024 227.21252 L 230.999423 213.824366 " stroke="#ffffff" stroke-width="2" stroke-opacity="1" stroke-miterlimit="4"/><path stroke-linecap="butt" transform="matrix(0.74868, 0, 0, 0.74868, 0.0554588, 0.00000998239)" fill="none" stroke-linejoin="miter" d="M 94.999563 227.21252 L 37.998163 213.824366 " stroke="#ffffff" stroke-width="2" stroke-opacity="1" stroke-miterlimit="4"/><path stroke-linecap="butt" transform="matrix(0.74868, 0, 0, 0.74868, 0.0554588, 0.00000998239)" fill="none" stroke-linejoin="miter" d="M 176.998097 239.567606 L 235.00126 233.390063 " stroke="#ffffff" stroke-width="2" stroke-opacity="1" stroke-miterlimit="4"/><path stroke-linecap="butt" transform="matrix(0.74868, 0, 0, 0.74868, 0.0554588, 0.00000998239)" fill="none" stroke-linejoin="miter" d="M 93.001253 239.567606 L 34.99809 233.390063 " stroke="#ffffff" stroke-width="2" stroke-opacity="1" stroke-miterlimit="4"/><path fill="#8f6564" d="M 69.683594 178.40625 C 69.683594 164.882812 80.644531 153.921875 94.167969 153.921875 L 108.085938 153.921875 C 121.609375 153.921875 132.570312 164.882812 132.570312 178.40625 C 132.570312 187.875 124.898438 195.546875 115.429688 195.546875 L 86.824219 195.546875 C 77.355469 195.546875 69.683594 187.875 69.683594 178.40625 Z M 69.683594 178.40625 " fill-opacity="1" fill-rule="nonzero"/><path fill="#1e1e1e" d="M 110.859375 171.269531 C 110.859375 176.167969 106.671875 174.4375 101.5 174.4375 C 96.332031 174.4375 92.144531 176.167969 92.144531 171.269531 C 92.144531 166.371094 96.332031 162.398438 101.5 162.398438 C 106.671875 162.398438 110.859375 166.371094 110.859375 171.269531 Z M 110.859375 171.269531 " fill-opacity="1" fill-rule="nonzero"/><path fill="#ffffff" d="M 94.390625 187.066406 L 101.128906 187.066406 L 101.128906 194.777344 L 94.390625 194.777344 Z M 94.390625 187.066406 " fill-opacity="1" fill-rule="nonzero"/><path fill="#ffffff" d="M 101.875 187.066406 L 108.613281 187.066406 L 108.613281 194.777344 L 101.875 194.777344 Z M 101.875 187.066406 " fill-opacity="1" fill-rule="nonzero"/><path stroke-linecap="round" transform="matrix(0.74868, 0, 0, 0.74868, 0.0554588, 0.00000998239)" fill="none" stroke-linejoin="miter" d="M 105.998093 242.249411 C 128.845611 251.447898 141.398962 251.567901 163.265586 241.628527 " stroke="#1e1e1e" stroke-width="3" stroke-opacity="1" stroke-miterlimit="4"/><path fill="#fcad01" d="M 95.953125 6.339844 C 84.191406 8.355469 55.265625 16.074219 28.863281 44.964844 C 10.699219 64.84375 14.523438 100.351562 14.523438 100.351562 C 14.523438 100.351562 32.933594 107.863281 52.59375 110.546875 C 68.988281 112.785156 93.976562 109.917969 101.894531 108.898438 C 109.867188 109.5 134.992188 111.050781 151.222656 107.957031 C 170.679688 104.246094 188.589844 95.78125 188.589844 95.78125 C 188.589844 95.78125 190.183594 60.132812 170.800781 41.238281 C 142.636719 13.777344 113.269531 7.59375 101.402344 6.195312 C 99.578125 6.03125 97.761719 6.078125 95.953125 6.339844 Z M 95.953125 6.339844 " fill-opacity="1" fill-rule="evenodd"/><path fill="#e28926" d="M 84.757812 9.003906 C 81.289062 10.042969 77.886719 11.246094 74.550781 12.609375 C 75.65625 15.71875 76.5 18.539062 76.65625 20.246094 C 77.1875 25.988281 71.210938 102.382812 70.1875 103.207031 C 69.167969 104.035156 54.847656 104.769531 52.375 103.875 C 50.195312 103.085938 21.726562 93.667969 14.195312 91.175781 C 14.136719 96.734375 14.523438 100.351562 14.523438 100.351562 C 14.523438 100.351562 32.933594 107.863281 52.59375 110.546875 C 60.75 111.65625 71.027344 111.507812 80.277344 110.953125 C 80.371094 110.207031 80.46875 109.34375 80.558594 108.269531 L 75.175781 108.457031 C 75.175781 108.457031 81.316406 33.660156 84.757812 9.003906 Z M 113.542969 8.464844 C 117.988281 33.167969 129.246094 106.585938 129.246094 106.585938 L 123.984375 106.769531 C 124.164062 108.003906 124.332031 108.992188 124.492188 109.816406 C 133.527344 109.855469 143.402344 109.449219 151.222656 107.957031 C 170.679688 104.25 188.589844 95.78125 188.589844 95.78125 C 188.589844 95.78125 188.746094 92.289062 188.367188 86.917969 C 180.097656 90.152344 153.976562 100.382812 151.898438 101.261719 C 149.484375 102.285156 135.144531 102.304688 134.070312 101.53125 C 133 100.757812 122.246094 24.808594 122.414062 19.046875 C 122.464844 17.386719 123.09375 14.65625 123.953125 11.617188 C 120.542969 10.402344 117.074219 9.351562 113.542969 8.464844 Z M 131.703125 14.679688 C 133.441406 25.113281 138.351562 64.359375 139.648438 64.765625 C 140.746094 65.109375 141.46875 34.949219 141.597656 19.527344 C 138.199219 17.671875 134.890625 16.066406 131.703125 14.679688 Z M 66.074219 16.476562 C 62.984375 18.035156 59.785156 19.8125 56.515625 21.847656 C 57.613281 37.265625 60.21875 67.222656 61.289062 66.824219 C 62.554688 66.351562 64.988281 27.089844 66.074219 16.476562 Z M 43.285156 31.3125 C 40.296875 33.75 37.300781 36.425781 34.308594 39.339844 C 36.03125 49.859375 38.632812 67.054688 39.703125 67.390625 C 41.039062 67.808594 43.292969 37.976562 43.285156 31.3125 Z M 155.800781 28.550781 C 156.28125 35.601562 160.332031 64.671875 161.625 64.191406 C 162.667969 63.800781 164.175781 46.707031 165.234375 36.097656 C 162.082031 33.335938 158.929688 30.832031 155.800781 28.550781 Z M 155.800781 28.550781 " fill-opacity="1" fill-rule="evenodd"/><path fill="#fcad01" d="M 75.175781 108.457031 C 75.175781 108.457031 83.941406 1.710938 86.394531 1.195312 C 88.851562 0.679688 110.5625 -0.570312 111.824219 0.300781 C 113.089844 1.171875 129.246094 106.585938 129.246094 106.585938 Z M 75.175781 108.457031 " fill-opacity="1" fill-rule="evenodd"/><path fill="#e28926" d="M 67.273438 110.480469 C 72.730469 111.777344 135.570312 109.328125 136.074219 108.675781 C 136.578125 108.019531 136.734375 101.78125 136.035156 101.796875 C 135.335938 101.816406 70.378906 103.683594 70.378906 103.683594 Z M 67.273438 110.480469 " fill-opacity="1" fill-rule="evenodd"/><g clip-path="url(#ece6a50b5e)"><path fill="#fcad01" d="M 14.734375 96.027344 C 13.347656 96.382812 0.242188 102.007812 0.117188 103.605469 C -0.00390625 105.210938 -0.0117188 121.683594 0.730469 123.101562 C 1.472656 124.519531 13.027344 119.578125 16.1875 119.976562 C 19.34375 120.371094 43.929688 129.644531 50.429688 130.75 C 55.96875 131.695312 90.902344 130.476562 102.546875 129.660156 C 114.226562 129.863281 149.175781 129.25 154.648438 128.015625 C 161.066406 126.570312 185.03125 116.023438 188.160156 115.460938 C 191.289062 114.898438 203.132812 119.226562 203.785156 117.769531 C 204.441406 116.316406 203.402344 99.871094 203.175781 98.277344 C 202.953125 96.683594 189.511719 91.761719 188.105469 91.476562 C 186.699219 91.195312 156.519531 104.140625 150.085938 105.109375 C 130.84375 106.503906 86.332031 106.78125 53.550781 107.640625 C 47.0625 107.011719 16.121094 95.671875 14.734375 96.027344 Z M 14.734375 96.027344 " fill-opacity="1" fill-rule="evenodd"/></g><path fill="#fcad01" d="M 161.316406 64.359375 C 161.316406 64.359375 161.019531 27.390625 159.984375 25.835938 C 158.945312 24.28125 141.9375 13.871094 139.464844 13.824219 C 136.992188 13.773438 139.902344 64.597656 139.902344 64.597656 Z M 161.316406 64.359375 " fill-opacity="1" fill-rule="evenodd"/><path fill="#fcad01" d="M 39.785156 67.550781 C 39.785156 67.550781 37.761719 30.628906 38.699219 29.019531 C 39.636719 27.410156 55.96875 16.128906 58.433594 15.949219 C 60.898438 15.773438 61.179688 66.664062 61.179688 66.664062 Z M 39.785156 67.550781 " fill-opacity="1" fill-rule="evenodd"/></svg>