<svg xmlns="http://www.w3.org/2000/svg" xmlns:xlink="http://www.w3.org/1999/xlink" width="1080" zoomAndPan="magnify" viewBox="0 0 810 809.999993" height="1080" preserveAspectRatio="xMidYMid meet" version="1.0"><defs><clipPath id="72ac773c28"><path d="M 243 260.574219 L 567 260.574219 L 567 575.574219 L 243 575.574219 Z M 243 260.574219 " clip-rule="nonzero"/></clipPath></defs><g clip-path="url(#72ac773c28)"><path fill="#ffffff" d="M 242.953125 351.871094 L 323.734375 351.871094 L 425.578125 272.75 L 425.578125 367.980469 L 516.988281 260.527344 L 528.820312 270.59375 L 269.746094 575.175781 L 257.910156 565.113281 L 322.136719 489.609375 L 242.96875 489.609375 L 242.96875 351.871094 Z M 425.578125 413.457031 L 425.578125 568.730469 L 346.054688 506.945312 Z M 486.621094 420.742188 C 486.621094 446.882812 467.953125 469.265625 442.558594 474.203125 L 439.621094 458.890625 C 457.746094 455.363281 470.996094 439.472656 470.996094 420.742188 C 470.996094 405.488281 462.1875 392.101562 449.140625 385.761719 L 459.472656 373.632812 C 475.828125 383.136719 486.636719 400.859375 486.636719 420.742188 Z M 525.542969 420.742188 C 525.542969 459.679688 501.375 494.238281 465.542969 507.96875 L 460 493.386719 C 489.851562 481.9375 509.917969 453.265625 509.917969 420.742188 C 509.917969 393.917969 496.28125 369.71875 474.753906 355.648438 L 484.914062 343.703125 C 509.8125 360.789062 525.542969 389.351562 525.542969 420.757812 Z M 566.9375 420.742188 C 566.9375 473.785156 535.953125 521.3125 488.546875 543.179688 L 482.023438 529.03125 C 523.945312 509.695312 551.328125 467.726562 551.328125 420.742188 C 551.328125 381.601562 532.316406 345.9375 501.734375 323.945312 L 511.859375 312.03125 C 545.859375 336.976562 566.953125 376.972656 566.953125 420.726562 Z M 566.9375 420.742188 " fill-opacity="1" fill-rule="evenodd"/></g></svg>