<svg xmlns="http://www.w3.org/2000/svg" xmlns:xlink="http://www.w3.org/1999/xlink" width="1080" zoomAndPan="magnify" viewBox="0 0 810 809.999993" height="1080" preserveAspectRatio="xMidYMid meet" version="1.0"><path fill="#ffffff" d="M 460.136719 243 L 502.769531 243 C 503.605469 243 504.441406 243.042969 505.277344 243.125 C 506.109375 243.207031 506.9375 243.328125 507.757812 243.492188 C 508.578125 243.65625 509.390625 243.859375 510.191406 244.101562 C 510.996094 244.34375 511.78125 244.625 512.558594 244.945312 C 513.332031 245.269531 514.085938 245.625 514.824219 246.019531 C 515.566406 246.414062 516.28125 246.84375 516.980469 247.3125 C 517.675781 247.777344 518.347656 248.273438 518.996094 248.804688 C 519.644531 249.335938 520.261719 249.898438 520.855469 250.492188 C 521.449219 251.085938 522.007812 251.703125 522.539062 252.351562 C 523.070312 253 523.570312 253.671875 524.035156 254.367188 C 524.5 255.066406 524.933594 255.78125 525.328125 256.519531 C 525.722656 257.257812 526.078125 258.015625 526.398438 258.789062 C 526.71875 259.5625 527.003906 260.351562 527.246094 261.152344 C 527.488281 261.957031 527.691406 262.765625 527.855469 263.589844 C 528.019531 264.410156 528.140625 265.238281 528.222656 266.070312 C 528.304688 266.90625 528.347656 267.742188 528.347656 268.578125 L 528.347656 541.421875 C 528.347656 542.257812 528.304688 543.09375 528.222656 543.929688 C 528.140625 544.761719 528.019531 545.589844 527.855469 546.410156 C 527.691406 547.234375 527.488281 548.042969 527.246094 548.847656 C 527.003906 549.648438 526.71875 550.433594 526.398438 551.210938 C 526.078125 551.984375 525.722656 552.738281 525.328125 553.480469 C 524.929688 554.21875 524.5 554.933594 524.035156 555.632812 C 523.570312 556.328125 523.070312 557 522.539062 557.648438 C 522.007812 558.296875 521.449219 558.914062 520.855469 559.507812 C 520.261719 560.101562 519.644531 560.660156 518.996094 561.195312 C 518.347656 561.726562 517.675781 562.222656 516.980469 562.6875 C 516.28125 563.152344 515.566406 563.585938 514.824219 563.980469 C 514.085938 564.375 513.332031 564.730469 512.554688 565.050781 C 511.78125 565.375 510.996094 565.65625 510.191406 565.898438 C 509.390625 566.140625 508.578125 566.34375 507.757812 566.507812 C 506.9375 566.671875 506.109375 566.792969 505.273438 566.875 C 504.441406 566.957031 503.605469 567 502.769531 567 L 460.136719 567 C 459.296875 567 458.460938 566.957031 457.628906 566.875 C 456.796875 566.792969 455.96875 566.671875 455.144531 566.507812 C 454.324219 566.34375 453.511719 566.140625 452.710938 565.898438 C 451.910156 565.65625 451.121094 565.375 450.347656 565.050781 C 449.574219 564.730469 448.816406 564.375 448.078125 563.980469 C 447.339844 563.585938 446.621094 563.152344 445.925781 562.6875 C 445.230469 562.222656 444.558594 561.726562 443.910156 561.195312 C 443.261719 560.660156 442.640625 560.101562 442.050781 559.507812 C 441.457031 558.914062 440.894531 558.296875 440.363281 557.648438 C 439.832031 557 439.332031 556.328125 438.867188 555.632812 C 438.402344 554.933594 437.972656 554.21875 437.578125 553.480469 C 437.183594 552.738281 436.824219 551.984375 436.503906 551.210938 C 436.183594 550.433594 435.902344 549.648438 435.660156 548.847656 C 435.414062 548.042969 435.210938 547.234375 435.050781 546.410156 C 434.886719 545.589844 434.761719 544.761719 434.679688 543.929688 C 434.597656 543.09375 434.558594 542.257812 434.558594 541.421875 L 434.558594 268.578125 C 434.558594 267.742188 434.597656 266.90625 434.679688 266.070312 C 434.761719 265.238281 434.886719 264.410156 435.050781 263.589844 C 435.210938 262.765625 435.414062 261.957031 435.660156 261.152344 C 435.902344 260.351562 436.183594 259.5625 436.503906 258.789062 C 436.824219 258.015625 437.183594 257.261719 437.578125 256.519531 C 437.972656 255.78125 438.402344 255.066406 438.867188 254.367188 C 439.332031 253.671875 439.832031 253 440.363281 252.351562 C 440.894531 251.703125 441.457031 251.085938 442.050781 250.492188 C 442.640625 249.898438 443.261719 249.335938 443.910156 248.804688 C 444.558594 248.273438 445.230469 247.777344 445.925781 247.3125 C 446.621094 246.84375 447.339844 246.414062 448.078125 246.019531 C 448.816406 245.625 449.574219 245.269531 450.347656 244.945312 C 451.121094 244.625 451.910156 244.34375 452.710938 244.101562 C 453.511719 243.859375 454.324219 243.65625 455.144531 243.492188 C 455.96875 243.328125 456.796875 243.207031 457.628906 243.125 C 458.464844 243.042969 459.296875 243 460.136719 243 Z M 460.136719 243 " fill-opacity="1" fill-rule="nonzero"/><path fill="#ffffff" d="M 306.664062 243 L 349.292969 243 C 350.132812 243 350.96875 243.042969 351.800781 243.125 C 352.636719 243.207031 353.464844 243.328125 354.285156 243.492188 C 355.105469 243.65625 355.917969 243.859375 356.71875 244.101562 C 357.519531 244.34375 358.308594 244.625 359.082031 244.945312 C 359.855469 245.269531 360.613281 245.625 361.351562 246.019531 C 362.089844 246.414062 362.808594 246.84375 363.503906 247.3125 C 364.203125 247.777344 364.875 248.273438 365.523438 248.804688 C 366.167969 249.335938 366.789062 249.898438 367.382812 250.492188 C 367.972656 251.085938 368.535156 251.703125 369.066406 252.351562 C 369.597656 253 370.097656 253.671875 370.5625 254.367188 C 371.027344 255.066406 371.457031 255.78125 371.851562 256.519531 C 372.246094 257.257812 372.605469 258.015625 372.925781 258.789062 C 373.246094 259.5625 373.527344 260.351562 373.773438 261.152344 C 374.015625 261.957031 374.21875 262.765625 374.382812 263.589844 C 374.546875 264.410156 374.667969 265.238281 374.75 266.070312 C 374.832031 266.90625 374.875 267.742188 374.875 268.578125 L 374.875 541.421875 C 374.875 542.257812 374.832031 543.09375 374.75 543.929688 C 374.667969 544.761719 374.546875 545.589844 374.382812 546.410156 C 374.21875 547.234375 374.015625 548.042969 373.773438 548.847656 C 373.527344 549.648438 373.246094 550.433594 372.925781 551.210938 C 372.605469 551.984375 372.246094 552.738281 371.851562 553.480469 C 371.457031 554.21875 371.027344 554.933594 370.5625 555.632812 C 370.097656 556.328125 369.597656 557 369.066406 557.648438 C 368.535156 558.296875 367.972656 558.914062 367.382812 559.507812 C 366.789062 560.101562 366.167969 560.660156 365.519531 561.195312 C 364.875 561.726562 364.203125 562.222656 363.503906 562.6875 C 362.808594 563.152344 362.089844 563.585938 361.351562 563.980469 C 360.613281 564.375 359.855469 564.730469 359.082031 565.050781 C 358.308594 565.375 357.519531 565.65625 356.71875 565.898438 C 355.917969 566.140625 355.105469 566.34375 354.285156 566.507812 C 353.460938 566.671875 352.636719 566.792969 351.800781 566.875 C 350.96875 566.957031 350.132812 567 349.292969 567 L 306.664062 567 C 305.824219 567 304.988281 566.957031 304.15625 566.875 C 303.320312 566.792969 302.492188 566.671875 301.671875 566.507812 C 300.851562 566.34375 300.039062 566.140625 299.238281 565.898438 C 298.4375 565.65625 297.648438 565.375 296.875 565.050781 C 296.101562 564.730469 295.34375 564.375 294.605469 563.980469 C 293.867188 563.585938 293.148438 563.152344 292.453125 562.6875 C 291.753906 562.222656 291.082031 561.726562 290.4375 561.195312 C 289.789062 560.660156 289.167969 560.101562 288.574219 559.507812 C 287.984375 558.914062 287.421875 558.296875 286.890625 557.648438 C 286.359375 557 285.859375 556.328125 285.394531 555.632812 C 284.929688 554.933594 284.5 554.21875 284.105469 553.480469 C 283.710938 552.738281 283.351562 551.984375 283.03125 551.210938 C 282.710938 550.433594 282.429688 549.648438 282.183594 548.847656 C 281.941406 548.042969 281.738281 547.234375 281.574219 546.410156 C 281.410156 545.589844 281.289062 544.761719 281.207031 543.929688 C 281.125 543.09375 281.082031 542.257812 281.082031 541.421875 L 281.082031 268.578125 C 281.082031 267.742188 281.125 266.90625 281.207031 266.070312 C 281.289062 265.238281 281.410156 264.410156 281.574219 263.589844 C 281.738281 262.765625 281.941406 261.957031 282.183594 261.152344 C 282.429688 260.351562 282.710938 259.5625 283.03125 258.789062 C 283.351562 258.015625 283.710938 257.261719 284.105469 256.519531 C 284.5 255.78125 284.929688 255.066406 285.394531 254.367188 C 285.859375 253.671875 286.359375 253 286.890625 252.351562 C 287.421875 251.703125 287.984375 251.085938 288.574219 250.492188 C 289.167969 249.898438 289.789062 249.335938 290.4375 248.804688 C 291.082031 248.273438 291.753906 247.777344 292.453125 247.3125 C 293.148438 246.84375 293.867188 246.414062 294.605469 246.019531 C 295.34375 245.625 296.101562 245.269531 296.875 244.945312 C 297.648438 244.625 298.4375 244.34375 299.238281 244.101562 C 300.039062 243.859375 300.851562 243.65625 301.671875 243.492188 C 302.492188 243.328125 303.320312 243.207031 304.15625 243.125 C 304.988281 243.042969 305.824219 243 306.664062 243 Z M 306.664062 243 " fill-opacity="1" fill-rule="nonzero"/></svg>