<svg xmlns="http://www.w3.org/2000/svg" xmlns:xlink="http://www.w3.org/1999/xlink" width="1080" zoomAndPan="magnify" viewBox="0 0 810 809.999993" height="1080" preserveAspectRatio="xMidYMid meet" version="1.0"><defs><clipPath id="a9b9c9758c"><path d="M 273.78125 244 L 536 244 L 536 565 L 273.78125 565 Z M 273.78125 244 " clip-rule="nonzero"/></clipPath></defs><g clip-path="url(#a9b9c9758c)"><path fill="#ffffff" d="M 523.546875 425.597656 L 312.078125 560.625 C 311.128906 561.234375 310.144531 561.773438 309.128906 562.25 C 308.109375 562.722656 307.0625 563.128906 305.988281 563.464844 C 304.914062 563.796875 303.824219 564.058594 302.714844 564.246094 C 301.605469 564.4375 300.488281 564.550781 299.367188 564.589844 C 298.242188 564.628906 297.121094 564.589844 296 564.480469 C 294.882812 564.367188 293.777344 564.183594 292.679688 563.921875 C 291.585938 563.664062 290.515625 563.332031 289.464844 562.925781 C 288.417969 562.523438 287.398438 562.050781 286.410156 561.511719 C 285.425781 560.972656 284.480469 560.371094 283.574219 559.703125 C 282.667969 559.035156 281.8125 558.3125 281.003906 557.53125 C 280.195312 556.75 279.441406 555.917969 278.742188 555.035156 C 278.046875 554.152344 277.410156 553.226562 276.839844 552.261719 C 276.265625 551.292969 275.757812 550.292969 275.320312 549.257812 C 274.878906 548.222656 274.511719 547.160156 274.214844 546.078125 C 273.917969 544.992188 273.695312 543.890625 273.546875 542.777344 C 273.394531 541.664062 273.320312 540.542969 273.324219 539.417969 L 273.324219 269.359375 C 273.320312 268.234375 273.394531 267.117188 273.546875 266 C 273.695312 264.886719 273.917969 263.789062 274.214844 262.703125 C 274.511719 261.617188 274.878906 260.558594 275.320312 259.523438 C 275.757812 258.488281 276.265625 257.488281 276.839844 256.519531 C 277.410156 255.550781 278.046875 254.625 278.742188 253.746094 C 279.441406 252.863281 280.195312 252.03125 281.003906 251.25 C 281.8125 250.46875 282.667969 249.742188 283.574219 249.078125 C 284.480469 248.410156 285.425781 247.808594 286.410156 247.265625 C 287.398438 246.726562 288.417969 246.253906 289.464844 245.851562 C 290.515625 245.449219 291.585938 245.117188 292.679688 244.855469 C 293.777344 244.597656 294.882812 244.410156 296 244.300781 C 297.121094 244.1875 298.242188 244.152344 299.367188 244.191406 C 300.488281 244.230469 301.605469 244.34375 302.714844 244.53125 C 303.824219 244.71875 304.914062 244.980469 305.988281 245.316406 C 307.0625 245.652344 308.109375 246.054688 309.128906 246.53125 C 310.144531 247.003906 311.128906 247.546875 312.078125 248.152344 L 523.546875 383.183594 C 523.988281 383.464844 524.421875 383.761719 524.847656 384.070312 C 525.269531 384.382812 525.683594 384.707031 526.089844 385.042969 C 526.492188 385.378906 526.886719 385.726562 527.265625 386.085938 C 527.648438 386.449219 528.019531 386.820312 528.378906 387.203125 C 528.738281 387.589844 529.082031 387.984375 529.417969 388.390625 C 529.75 388.796875 530.074219 389.210938 530.382812 389.636719 C 530.6875 390.0625 530.984375 390.5 531.265625 390.941406 C 531.542969 391.386719 531.8125 391.839844 532.0625 392.300781 C 532.316406 392.761719 532.554688 393.230469 532.777344 393.707031 C 533 394.183594 533.207031 394.664062 533.402344 395.152344 C 533.59375 395.640625 533.769531 396.136719 533.933594 396.636719 C 534.09375 397.136719 534.242188 397.640625 534.371094 398.152344 C 534.5 398.660156 534.617188 399.171875 534.714844 399.6875 C 534.8125 400.207031 534.894531 400.722656 534.960938 401.246094 C 535.023438 401.765625 535.074219 402.289062 535.105469 402.816406 C 535.140625 403.339844 535.15625 403.863281 535.15625 404.390625 C 535.15625 404.914062 535.140625 405.441406 535.105469 405.964844 C 535.074219 406.488281 535.023438 407.011719 534.960938 407.535156 C 534.894531 408.054688 534.8125 408.574219 534.714844 409.089844 C 534.617188 409.605469 534.5 410.121094 534.371094 410.628906 C 534.242188 411.136719 534.09375 411.644531 533.933594 412.144531 C 533.769531 412.644531 533.59375 413.136719 533.402344 413.625 C 533.207031 414.113281 533 414.597656 532.777344 415.074219 C 532.554688 415.550781 532.316406 416.019531 532.0625 416.480469 C 531.8125 416.941406 531.542969 417.390625 531.265625 417.835938 C 530.984375 418.28125 530.6875 418.714844 530.382812 419.140625 C 530.074219 419.566406 529.75 419.984375 529.417969 420.390625 C 529.082031 420.796875 528.738281 421.191406 528.378906 421.574219 C 528.019531 421.957031 527.648438 422.332031 527.265625 422.691406 C 526.886719 423.050781 526.492188 423.402344 526.089844 423.738281 C 525.683594 424.074219 525.269531 424.398438 524.847656 424.707031 C 524.421875 425.019531 523.988281 425.316406 523.546875 425.597656 Z M 523.546875 425.597656 " fill-opacity="1" fill-rule="nonzero"/></g></svg>