<svg xmlns="http://www.w3.org/2000/svg" xmlns:xlink="http://www.w3.org/1999/xlink" width="1080" zoomAndPan="magnify" viewBox="0 0 810 809.999993" height="1080" preserveAspectRatio="xMidYMid meet" version="1.0"><defs><clipPath id="d28d15c877"><path d="M 245 263.25 L 567 263.25 L 567 545 L 245 545 Z M 245 263.25 " clip-rule="nonzero"/></clipPath></defs><g clip-path="url(#d28d15c877)"><path fill="#ffffff" d="M 563.839844 400.980469 L 503.519531 461.296875 C 499.699219 465.320312 493.265625 465.320312 489.445312 461.296875 L 429.128906 400.980469 C 426.113281 398.164062 425.308594 393.941406 426.914062 390.121094 C 428.523438 386.300781 432.144531 383.886719 436.164062 383.886719 L 463.507812 383.886719 C 454.058594 345.90625 419.214844 320.292969 378.238281 323.910156 C 342.007812 327.109375 311.503906 356.082031 306.339844 392.089844 C 299.199219 441.816406 337.542969 484.421875 385.898438 484.421875 C 403.453125 484.421875 420 478.789062 433.570312 468.617188 C 437.734375 465.5 443.402344 465.519531 447.082031 469.199219 L 475.695312 497.8125 C 479.777344 501.894531 479.753906 508.769531 475.332031 512.488281 C 451.96875 532.074219 422.933594 543.351562 391.808594 544.617188 C 314.78125 547.753906 247.265625 484.863281 245.214844 407.792969 C 243.101562 328.453125 307.023438 263.25 385.898438 263.25 C 456.875 263.25 515.382812 314.519531 525.234375 383.886719 L 556.804688 383.886719 C 560.824219 383.886719 564.445312 386.300781 566.050781 390.121094 C 567.660156 393.941406 566.855469 398.164062 563.839844 400.980469 Z M 563.839844 400.980469 " fill-opacity="1" fill-rule="nonzero"/></g></svg>