<svg xmlns="http://www.w3.org/2000/svg" xmlns:xlink="http://www.w3.org/1999/xlink" width="1080" zoomAndPan="magnify" viewBox="0 0 810 809.999993" height="1080" preserveAspectRatio="xMidYMid meet" version="1.0"><defs><clipPath id="03fcb1a1f9"><path d="M 243 281 L 390 281 L 390 529.460938 L 243 529.460938 Z M 243 281 " clip-rule="nonzero"/></clipPath></defs><g clip-path="url(#03fcb1a1f9)"><path fill="#ffffff" d="M 384.902344 281.824219 C 382.382812 280.613281 379.375 280.957031 377.179688 282.707031 L 306.171875 339.511719 L 250.324219 339.511719 C 246.292969 339.511719 243.023438 342.785156 243.023438 346.816406 L 243.023438 463.636719 C 243.023438 467.675781 246.292969 470.9375 250.324219 470.9375 L 306.171875 470.9375 L 377.183594 527.75 C 378.5 528.808594 380.121094 529.351562 381.742188 529.351562 C 382.816406 529.351562 383.894531 529.117188 384.902344 528.625 C 387.4375 527.40625 389.042969 524.851562 389.042969 522.046875 L 389.042969 288.402344 C 389.042969 285.597656 387.4375 283.035156 384.902344 281.824219 Z M 384.902344 281.824219 " fill-opacity="1" fill-rule="nonzero"/></g><path fill="#ffffff" d="M 445.316406 357.714844 C 442.460938 354.859375 437.84375 354.859375 434.992188 357.714844 C 432.136719 360.570312 432.136719 365.191406 434.992188 368.039062 C 444.648438 377.699219 449.972656 390.535156 449.972656 404.183594 C 449.972656 417.828125 444.648438 430.65625 434.992188 440.324219 C 432.136719 443.179688 432.136719 447.792969 434.992188 450.648438 C 436.414062 452.070312 438.285156 452.789062 440.152344 452.789062 C 442.023438 452.789062 443.890625 452.070312 445.316406 450.648438 C 457.734375 438.226562 464.574219 421.726562 464.574219 404.183594 C 464.574219 386.636719 457.742188 370.136719 445.316406 357.714844 Z M 445.316406 357.714844 " fill-opacity="1" fill-rule="nonzero"/><path fill="#ffffff" d="M 507.273438 295.761719 C 504.417969 292.910156 499.804688 292.910156 496.949219 295.761719 C 494.09375 298.617188 494.09375 303.234375 496.949219 306.085938 C 551.03125 360.175781 551.03125 448.1875 496.949219 502.285156 C 494.09375 505.136719 494.09375 509.753906 496.949219 512.609375 C 498.375 514.03125 500.242188 514.746094 502.113281 514.746094 C 503.980469 514.746094 505.851562 514.03125 507.273438 512.609375 C 567.042969 452.824219 567.042969 355.539062 507.273438 295.761719 Z M 507.273438 295.761719 " fill-opacity="1" fill-rule="nonzero"/><path fill="#ffffff" d="M 476.300781 326.734375 C 473.445312 323.878906 468.832031 323.878906 465.976562 326.734375 C 463.121094 329.589844 463.121094 334.203125 465.976562 337.058594 C 483.917969 355.007812 493.804688 378.839844 493.804688 404.175781 C 493.804688 429.511719 483.917969 453.347656 465.976562 471.289062 C 463.121094 474.144531 463.121094 478.757812 465.976562 481.613281 C 467.402344 483.035156 469.269531 483.753906 471.140625 483.753906 C 473.007812 483.753906 474.878906 483.035156 476.300781 481.613281 C 497 460.914062 508.398438 433.410156 508.398438 404.175781 C 508.398438 374.941406 497 347.433594 476.300781 326.734375 Z M 476.300781 326.734375 " fill-opacity="1" fill-rule="nonzero"/></svg>